<?xml version="1.0" encoding="UTF-8"?>
<!DOCTYPE svg PUBLIC "-//W3C//DTD SVG 1.1//EN" "http://www.w3.org/Graphics/SVG/1.1/DTD/svg11.dtd">
<!-- Creator: CorelDRAW X7 -->
<svg xmlns="http://www.w3.org/2000/svg" xml:space="preserve" width="1417px" height="354px" version="1.1" shape-rendering="geometricPrecision" text-rendering="geometricPrecision" image-rendering="optimizeQuality" fill-rule="evenodd" clip-rule="evenodd"
viewBox="0 0 1499 375"
 xmlns:xlink="http://www.w3.org/1999/xlink">
 <g id="Layer_x0020_1">
  <metadata id="CorelCorpID_0Corel-Layer"/>
  <path fill="#F07D00" d="M48 0l1403 0c26,0 48,22 48,48l0 278c0,27 -22,49 -48,49l-1403 0c-26,0 -48,-22 -48,-49l0 -278c0,-26 22,-48 48,-48z"/>
  <g id="_821088105664">
   <path fill="white" d="M151 43c-13,2 -62,24 -64,140 -1,121 51,147 64,147l0 -81c-11,0 -13,-12 -16,-37 -1,-17 -2,-37 0,-58 2,-14 5,-28 16,-28l0 -83z"/>
   <path fill="white" d="M189 330c5,0 8,-4 8,-9l0 0c0,0 0,-63 0,-63 0,-5 -4,-9 -8,-9l-23 0 0 81c0,0 22,0 22,0l1 0z"/>
   <path fill="white" d="M189 126c5,0 8,-5 8,-9l0 0c0,0 0,-65 0,-65 0,-5 -4,-9 -8,-9l-23 0 0 83 22 0 1 0z"/>
  </g>
  <path fill="white" fill-rule="nonzero" d="M373 194c0,30 -3,55 -11,72 -8,18 -18,26 -31,26 -14,0 -24,-9 -32,-26 -8,-18 -11,-43 -11,-74 0,-31 3,-56 11,-73 8,-18 18,-27 32,-27 13,0 24,9 31,27 8,17 11,42 11,75zm-57 -2c0,21 1,37 4,46 2,10 6,15 11,15 5,0 8,-5 10,-15 3,-10 4,-25 4,-46 0,-21 -1,-36 -4,-46 -2,-10 -5,-15 -10,-15 -5,0 -9,5 -11,15 -3,9 -4,25 -4,46z"/>
  <polygon id="1" fill="white" fill-rule="nonzero" points="395,287 438,139 390,139 390,96 477,96 477,105 427,287 "/>
  <path id="2" fill="white" fill-rule="nonzero" d="M529 168c4,0 7,-2 10,-6 2,-4 3,-9 3,-16 0,-7 -1,-12 -3,-16 -3,-4 -6,-6 -10,-6 -4,0 -8,2 -10,6 -2,4 -4,9 -4,16 0,7 2,12 4,16 2,4 6,6 10,6zm0 86c5,0 8,-3 11,-7 3,-5 4,-11 4,-19 0,-8 -1,-14 -4,-19 -3,-4 -6,-7 -11,-7 -5,0 -9,3 -12,7 -2,5 -4,11 -4,19 0,8 2,14 4,19 3,4 7,7 12,7zm20 -70c7,2 13,8 17,16 4,9 6,20 6,34 0,18 -4,33 -11,43 -8,10 -19,15 -32,15 -14,0 -24,-5 -32,-15 -8,-10 -11,-25 -11,-43 0,-14 2,-25 6,-34 4,-8 10,-14 17,-16 -6,-3 -11,-7 -14,-14 -3,-7 -5,-16 -5,-26 0,-16 4,-29 10,-38 7,-10 17,-14 29,-14 12,0 21,4 28,14 7,9 10,22 10,38 0,10 -1,19 -4,26 -4,7 -8,11 -14,14z"/>
  <path id="3" fill="white" fill-rule="nonzero" d="M713 96l0 39 -43 0 -2 25c2,-1 4,-2 7,-2 2,0 4,-1 7,-1 11,0 20,6 27,18 6,12 10,28 10,48 0,21 -4,38 -13,51 -8,12 -19,18 -34,18 -7,0 -13,-1 -19,-4 -6,-2 -11,-6 -16,-11l2 -47 3 1c3,7 6,13 11,17 5,4 10,6 15,6 7,0 13,-3 17,-9 4,-6 6,-14 6,-25 0,-10 -3,-18 -7,-25 -4,-6 -10,-10 -16,-10 -5,0 -9,2 -13,4 -3,3 -7,7 -10,12l-3 -4 9 -101 62 0z"/>
  <path id="4" fill="white" fill-rule="nonzero" d="M817 287l-87 0 51 -103c3,-6 5,-12 7,-17 1,-5 2,-9 2,-14 0,-7 -1,-12 -4,-16 -2,-5 -5,-7 -9,-7 -5,0 -9,3 -12,8 -2,5 -4,13 -4,23l0 3 -27 0 0 -2c0,-22 4,-39 11,-52 8,-12 18,-18 31,-18 13,0 23,5 31,16 7,12 11,26 11,45 0,9 -1,18 -4,26 -2,9 -6,18 -11,29l-21 38 35 0 0 41z"/>
  <path id="5" fill="white" fill-rule="nonzero" d="M926 189c6,0 10,-2 13,-8 3,-5 5,-12 5,-21 0,-9 -2,-17 -5,-22 -3,-5 -7,-8 -13,-8 -5,0 -9,3 -12,8 -3,5 -5,13 -5,22 0,9 2,16 5,21 3,6 7,8 12,8zm2 31c-2,1 -4,2 -6,2 -2,1 -4,1 -6,1 -10,0 -18,-6 -24,-17 -6,-12 -9,-26 -9,-44 0,-21 4,-38 11,-51 8,-13 19,-19 32,-19 13,0 24,6 31,19 8,12 12,29 12,51 0,11 -2,23 -5,36 -3,13 -8,29 -15,48l-16 41 -32 0 27 -67z"/>
  <path id="6" fill="white" fill-rule="nonzero" d="M1068 194c0,30 -4,55 -12,72 -7,18 -18,26 -31,26 -14,0 -24,-9 -32,-26 -7,-18 -11,-43 -11,-74 0,-31 4,-56 11,-73 8,-18 18,-27 32,-27 13,0 24,9 31,27 8,17 12,42 12,75zm-58 -2c0,21 2,37 4,46 2,10 6,15 11,15 5,0 8,-5 11,-15 2,-10 3,-25 3,-46 0,-21 -1,-36 -3,-46 -3,-10 -6,-15 -11,-15 -5,0 -9,5 -11,15 -3,9 -4,25 -4,46z"/>
  <polygon id="7" fill="white" fill-rule="nonzero" points="1162,287 1162,139 1138,139 1151,96 1190,96 1190,287 "/>
  <path id="8" fill="white" fill-rule="nonzero" d="M1316 194c0,30 -4,55 -12,72 -7,18 -18,26 -31,26 -14,0 -24,-9 -32,-26 -7,-18 -11,-43 -11,-74 0,-31 4,-56 11,-73 8,-18 18,-27 32,-27 13,0 24,9 31,27 8,17 12,42 12,75zm-58 -2c0,21 1,37 4,46 2,10 6,15 11,15 5,0 8,-5 11,-15 2,-10 3,-25 3,-46 0,-21 -1,-36 -3,-46 -3,-10 -6,-15 -11,-15 -5,0 -9,5 -11,15 -3,9 -4,25 -4,46z"/>
 </g>
</svg>
