<?xml version="1.0" encoding="UTF-8"?>
<!DOCTYPE svg PUBLIC "-//W3C//DTD SVG 1.1//EN" "http://www.w3.org/Graphics/SVG/1.1/DTD/svg11.dtd">
<!-- Creator: CorelDRAW X7 -->
<svg xmlns="http://www.w3.org/2000/svg" xml:space="preserve" width="1417px" height="354px" version="1.1" shape-rendering="geometricPrecision" text-rendering="geometricPrecision" image-rendering="optimizeQuality" fill-rule="evenodd" clip-rule="evenodd"
viewBox="0 0 1445 361"
 xmlns:xlink="http://www.w3.org/1999/xlink">
 <g id="Layer_x0020_1">
  <metadata id="CorelCorpID_0Corel-Layer"/>
  <path fill="#CE1F2C" d="M47 0l1351 0c26,0 47,21 47,47l0 268c0,25 -21,46 -47,46l-1351 0c-26,0 -47,-21 -47,-46l0 -268c0,-26 21,-47 47,-47z"/>
  <g id="_821077480144">
   <path fill="white" d="M146 42c-13,1 -60,23 -62,134 -1,117 49,142 62,142l0 -78c-11,0 -13,-11 -15,-36 -2,-16 -3,-36 0,-56 1,-13 4,-27 15,-27l0 -79z"/>
   <path fill="white" d="M182 318c5,0 8,-4 8,-9l0 0c0,0 0,-60 0,-60 0,-5 -4,-9 -8,-9l-22 0 0 78c0,0 22,0 22,0l0 0z"/>
   <path fill="white" d="M182 121c5,0 8,-4 8,-9l0 0c0,0 0,-62 0,-62 0,-5 -4,-8 -8,-8l-22 0 0 79 22 0 0 0z"/>
  </g>
  <path fill="white" fill-rule="nonzero" d="M360 156c0,29 -4,52 -11,69 -7,17 -17,25 -30,25 -13,0 -23,-8 -31,-25 -7,-18 -11,-41 -11,-71 0,-30 4,-54 11,-71 8,-17 18,-26 31,-26 13,0 23,9 30,26 7,17 11,41 11,73zm-55 -2c0,20 1,35 3,44 2,10 6,14 11,14 4,0 8,-4 10,-14 2,-9 3,-24 3,-44 0,-20 -1,-35 -3,-45 -2,-9 -6,-14 -10,-14 -5,0 -9,5 -11,14 -2,9 -3,24 -3,45z"/>
  <path id="1" fill="white" fill-rule="nonzero" d="M414 131c4,0 7,-2 10,-6 2,-4 3,-9 3,-16 0,-6 -1,-11 -3,-15 -3,-4 -6,-6 -10,-6 -4,0 -7,2 -9,6 -3,4 -4,9 -4,15 0,7 1,12 4,16 2,4 5,6 9,6zm0 82c5,0 9,-2 11,-6 3,-5 4,-11 4,-19 0,-7 -1,-13 -4,-18 -2,-4 -6,-6 -11,-6 -4,0 -8,2 -11,6 -2,5 -4,11 -4,18 0,8 2,14 4,18 3,5 7,7 11,7zm19 -67c8,2 13,7 17,16 4,8 6,19 6,32 0,18 -4,32 -11,42 -7,10 -18,14 -31,14 -13,0 -23,-4 -30,-14 -8,-10 -11,-24 -11,-42 0,-13 2,-24 5,-32 4,-9 10,-14 17,-16 -6,-2 -10,-7 -13,-14 -3,-6 -5,-15 -5,-24 0,-16 3,-29 10,-37 6,-9 15,-14 27,-14 12,0 21,5 28,14 6,8 9,21 9,37 0,9 -1,18 -4,24 -3,7 -8,12 -14,14z"/>
  <path id="2" fill="white" fill-rule="nonzero" d="M510 131c4,0 7,-2 9,-6 3,-4 4,-9 4,-16 0,-6 -1,-11 -4,-15 -2,-4 -5,-6 -9,-6 -4,0 -7,2 -10,6 -2,4 -3,9 -3,15 0,7 1,12 3,16 3,4 6,6 10,6zm0 82c4,0 8,-2 11,-6 3,-5 4,-11 4,-19 0,-7 -1,-13 -4,-18 -3,-4 -7,-6 -11,-6 -5,0 -9,2 -11,6 -3,5 -4,11 -4,18 0,8 1,14 4,18 3,5 6,7 11,7zm19 -67c7,2 13,7 17,16 4,8 5,19 5,32 0,18 -3,32 -11,42 -7,10 -17,14 -30,14 -13,0 -24,-4 -31,-14 -7,-10 -11,-24 -11,-42 0,-13 2,-24 6,-32 4,-9 9,-14 17,-16 -6,-2 -11,-7 -14,-14 -3,-6 -4,-15 -4,-24 0,-16 3,-29 9,-37 7,-9 16,-14 28,-14 11,0 21,5 27,14 7,8 10,21 10,37 0,9 -2,18 -5,24 -3,7 -7,12 -13,14z"/>
  <path id="3" fill="white" fill-rule="nonzero" d="M653 156c-5,0 -9,3 -12,8 -3,5 -4,12 -4,21 0,9 1,16 4,21 3,5 7,7 12,7 5,0 9,-2 12,-7 3,-5 5,-12 5,-21 0,-9 -2,-16 -5,-21 -3,-5 -7,-8 -12,-8zm-1 -29c2,-1 4,-2 5,-3 2,0 4,0 6,0 10,0 17,5 23,16 6,11 10,26 10,43 0,20 -4,37 -12,49 -7,12 -18,18 -30,18 -13,0 -23,-6 -31,-18 -7,-12 -11,-29 -11,-49 0,-11 1,-22 4,-33 2,-11 8,-27 16,-49l15 -40 30 0 -25 66z"/>
  <path id="4" fill="white" fill-rule="nonzero" d="M790 156c0,29 -3,52 -11,69 -7,17 -17,25 -30,25 -13,0 -23,-8 -30,-25 -8,-18 -12,-41 -12,-71 0,-30 4,-54 12,-71 7,-17 17,-26 30,-26 13,0 23,9 30,26 8,17 11,41 11,73zm-55 -2c0,20 1,35 3,44 3,10 6,14 11,14 5,0 8,-4 10,-14 3,-9 4,-24 4,-44 0,-20 -1,-35 -4,-45 -2,-9 -5,-14 -10,-14 -5,0 -9,5 -11,14 -2,9 -3,24 -3,45z"/>
  <path id="5" fill="white" fill-rule="nonzero" d="M886 156c0,29 -4,52 -11,69 -8,17 -18,25 -31,25 -12,0 -22,-8 -30,-25 -7,-18 -11,-41 -11,-71 0,-30 4,-54 11,-71 8,-17 18,-26 30,-26 14,0 24,9 31,26 7,17 11,41 11,73zm-55 -2c0,20 1,35 3,44 2,10 6,14 10,14 5,0 9,-4 11,-14 2,-9 3,-24 3,-44 0,-20 -1,-35 -3,-45 -2,-9 -6,-14 -11,-14 -4,0 -8,5 -10,14 -2,9 -3,24 -3,45z"/>
  <path id="6" fill="white" fill-rule="nonzero" d="M988 156c-5,0 -9,3 -12,8 -3,5 -5,12 -5,21 0,9 2,16 5,21 3,5 7,7 12,7 5,0 9,-2 12,-7 3,-5 4,-12 4,-21 0,-9 -1,-16 -4,-21 -3,-5 -7,-8 -12,-8zm-1 -29c1,-1 3,-2 5,-3 2,0 4,0 6,0 9,0 17,5 23,16 6,11 9,26 9,43 0,20 -4,37 -11,49 -8,12 -18,18 -31,18 -12,0 -23,-6 -30,-18 -7,-12 -11,-29 -11,-49 0,-11 1,-22 4,-33 2,-11 7,-27 15,-49l16 -40 30 0 -25 66z"/>
  <path id="7" fill="white" fill-rule="nonzero" d="M1125 156c0,29 -4,52 -11,69 -8,17 -18,25 -30,25 -13,0 -23,-8 -31,-25 -7,-18 -11,-41 -11,-71 0,-30 4,-54 11,-71 8,-17 18,-26 31,-26 13,0 23,9 30,26 7,17 11,41 11,73zm-55 -2c0,20 1,35 3,44 2,10 6,14 11,14 4,0 8,-4 10,-14 2,-9 3,-24 3,-44 0,-20 -1,-35 -3,-45 -2,-9 -6,-14 -10,-14 -5,0 -9,5 -11,14 -2,9 -3,24 -3,45z"/>
  <path id="8" fill="white" fill-rule="nonzero" d="M1220 156c0,29 -3,52 -11,69 -7,17 -17,25 -30,25 -13,0 -23,-8 -30,-25 -8,-18 -11,-41 -11,-71 0,-30 3,-54 11,-71 7,-17 17,-26 30,-26 13,0 23,9 31,26 7,17 10,41 10,73zm-55 -2c0,20 1,35 4,44 2,10 5,14 10,14 5,0 8,-4 11,-14 2,-9 3,-24 3,-44 0,-20 -1,-35 -3,-45 -3,-9 -6,-14 -11,-14 -5,0 -8,5 -11,14 -2,9 -3,24 -3,45z"/>
  <path id="9" fill="white" fill-rule="nonzero" d="M1316 156c0,29 -4,52 -11,69 -7,17 -17,25 -30,25 -13,0 -23,-8 -31,-25 -7,-18 -11,-41 -11,-71 0,-30 4,-54 11,-71 8,-17 18,-26 31,-26 13,0 23,9 30,26 7,17 11,41 11,73zm-55 -2c0,20 1,35 3,44 2,10 6,14 11,14 4,0 8,-4 10,-14 2,-9 3,-24 3,-44 0,-20 -1,-35 -3,-45 -2,-9 -6,-14 -10,-14 -5,0 -9,5 -11,14 -2,9 -3,24 -3,45z"/>
  <polygon fill="white" fill-rule="nonzero" points="474,323 463,323 463,288 447,288 447,323 435,323 435,280 474,280 "/>
  <path id="1" fill="white" fill-rule="nonzero" d="M527 302c0,6 -2,12 -6,16 -4,4 -9,6 -16,6 -7,0 -12,-2 -16,-6 -4,-4 -6,-10 -6,-16 0,-7 2,-13 6,-17 4,-4 9,-6 16,-6 7,0 12,2 16,6 4,4 6,10 6,17zm-15 11c2,-2 2,-3 3,-5 0,-2 1,-4 1,-6 0,-3 -1,-5 -1,-7 -1,-2 -2,-3 -3,-4 -1,-2 -2,-2 -3,-3 -1,-1 -3,-1 -4,-1 -1,0 -3,0 -4,1 -1,0 -2,1 -3,2 -1,2 -2,3 -3,5 0,2 -1,4 -1,7 0,2 1,4 1,6 1,2 2,3 2,5 1,1 3,2 4,2 1,1 3,1 4,1 1,0 3,0 4,-1 1,0 3,-1 3,-2z"/>
  <path id="2" fill="white" fill-rule="nonzero" d="M569 310c0,2 0,4 -1,6 -1,2 -2,3 -4,4 -2,2 -4,3 -6,3 -3,1 -6,1 -9,1 -3,0 -6,0 -9,-1 -3,0 -5,-1 -7,-2l0 -9 1 0c0,0 1,0 2,1 1,0 2,1 3,1 2,1 3,1 4,1 1,1 3,1 4,1 2,0 3,0 5,0 1,-1 2,-1 3,-2 1,0 1,-1 2,-2 0,0 1,-1 1,-2 0,-2 -1,-2 -1,-3 0,-1 -1,-1 -2,-2 0,0 -1,-1 -2,-1 -1,0 -3,0 -4,0l-8 0 0 -8 8 0c1,0 2,0 3,0 1,0 2,-1 3,-1 0,0 1,-1 1,-2 0,0 0,-1 0,-2 0,-1 0,-2 -2,-3 -1,0 -3,-1 -6,-1 -1,0 -3,0 -4,1 -1,0 -2,0 -4,1 -1,0 -2,0 -3,1 0,0 -1,1 -2,1l-1 0 0 -9c2,-1 4,-1 7,-2 3,-1 6,-1 9,-1 6,0 11,1 14,3 2,2 4,4 4,8 0,2 -1,4 -2,6 -2,2 -4,3 -7,4l0 0c1,0 3,0 4,1 1,0 2,1 3,2 1,1 2,2 2,3 1,1 1,2 1,4z"/>
  <path id="3" fill="white" fill-rule="nonzero" d="M615 310c0,2 -1,4 -1,6 -1,1 -2,3 -4,4 -2,1 -4,2 -6,2 -2,1 -4,1 -7,1l-19 0 0 -43 17 0c3,0 6,0 7,0 2,1 3,1 5,2 2,1 3,2 4,3 1,2 1,3 1,5 0,2 -1,4 -2,6 -1,1 -2,2 -4,3l0 0c2,1 5,2 6,4 2,2 3,4 3,7zm-14 -18c0,-1 -1,-1 -1,-2 0,-1 -1,-1 -2,-2 -1,0 -2,0 -3,0 -1,0 -3,0 -5,0l-1 0 0 9 2 0c1,0 3,0 4,0 1,0 2,0 3,-1 1,0 2,-1 2,-1 0,-1 1,-2 1,-3zm2 18c0,-2 0,-3 -1,-3 0,-1 -1,-2 -2,-2 -1,0 -2,0 -4,-1 -1,0 -3,0 -5,0l-2 0 0 11 1 0c3,0 5,0 6,0 2,0 3,0 4,-1 1,0 2,-1 3,-1 0,-1 0,-2 0,-3z"/>
  <path id="4" fill="white" fill-rule="nonzero" d="M657 310c0,-1 0,-2 0,-2 0,-1 0,-2 -1,-2 -1,-1 -1,-1 -2,-1 -1,-1 -2,-1 -4,-1l-7 0 0 11 7 0c1,0 2,0 3,0 1,-1 2,-1 3,-2 0,0 1,-1 1,-1 0,-1 0,-2 0,-2zm12 -1c0,2 -1,4 -1,6 -1,2 -2,3 -4,4 -1,2 -3,3 -5,3 -2,1 -4,1 -7,1l-20 0 0 -35 -13 0 0 -8 24 0 0 16 9 0c3,0 6,0 8,1 2,0 3,1 5,2 1,1 2,3 3,5 0,1 1,3 1,5z"/>
  <polygon id="5" fill="white" fill-rule="nonzero" points="716,323 705,323 705,304 688,304 688,323 677,323 677,280 688,280 688,296 705,296 705,280 716,280 "/>
  <polygon id="6" fill="white" fill-rule="nonzero" points="766,323 755,323 755,294 738,323 727,323 727,280 738,280 738,306 754,280 766,280 "/>
  <polygon id="7" fill="white" fill-rule="nonzero" points="837,323 826,323 826,294 808,323 797,323 797,280 808,280 808,306 825,280 837,280 "/>
  <path id="8" fill="white" fill-rule="nonzero" d="M901 310c0,2 0,4 -1,6 -1,2 -2,3 -4,4 -1,2 -4,3 -6,3 -3,1 -6,1 -9,1 -3,0 -6,0 -9,-1 -2,0 -5,-1 -7,-2l0 -9 1 0c0,0 1,0 2,1 1,0 3,1 4,1 1,1 2,1 4,1 1,1 2,1 4,1 1,0 3,0 4,0 1,-1 2,-1 3,-2 1,0 2,-1 2,-2 1,0 1,-1 1,-2 0,-2 0,-2 -1,-3 0,-1 -1,-1 -1,-2 -1,0 -2,-1 -3,-1 -1,0 -2,0 -4,0l-8 0 0 -8 8 0c1,0 3,0 4,0 1,0 2,-1 2,-1 1,0 1,-1 1,-2 1,0 1,-1 1,-2 0,-1 -1,-2 -3,-3 -1,0 -3,-1 -5,-1 -2,0 -3,0 -5,1 -1,0 -2,0 -3,1 -2,0 -3,0 -3,1 -1,0 -2,1 -3,1l-1 0 0 -9c2,-1 5,-1 8,-2 2,-1 5,-1 8,-1 6,0 11,1 14,3 3,2 4,4 4,8 0,2 -1,4 -2,6 -2,2 -4,3 -6,4l0 0c1,0 2,0 3,1 1,0 2,1 3,2 1,1 2,2 3,3 0,1 0,2 0,4z"/>
  <path id="9" fill="white" fill-rule="nonzero" d="M950 323l-12 0 -3 -9 -15 0 -3 9 -12 0 16 -43 13 0 16 43zm-17 -16l-5 -16 -6 16 11 0z"/>
  <polygon id="10" fill="white" fill-rule="nonzero" points="990,288 977,288 977,323 965,323 965,288 952,288 952,280 990,280 "/>
  <path id="11" fill="white" fill-rule="nonzero" d="M1034 310c0,2 -1,4 -1,6 -1,1 -2,3 -4,4 -2,1 -3,2 -6,2 -2,1 -4,1 -7,1l-19 0 0 -43 17 0c3,0 6,0 7,0 2,1 3,1 5,2 2,1 3,2 4,3 1,2 1,3 1,5 0,2 -1,4 -2,6 -1,1 -2,2 -4,3l0 0c2,1 5,2 6,4 2,2 3,4 3,7zm-14 -18c0,-1 -1,-1 -1,-2 0,-1 -1,-1 -2,-2 -1,0 -2,0 -3,0 -1,0 -3,0 -5,0l-1 0 0 9 2 0c1,0 3,0 4,0 1,0 2,0 3,-1 1,0 2,-1 2,-1 0,-1 1,-2 1,-3zm2 18c0,-2 0,-3 -1,-3 0,-1 -1,-2 -2,-2 -1,0 -2,0 -4,-1 -1,0 -3,0 -5,0l-2 0 0 11 1 0c3,0 5,0 6,0 2,0 3,0 4,-1 1,0 2,-1 3,-1 0,-1 0,-2 0,-3z"/>
  <path id="12" fill="white" fill-rule="nonzero" d="M1084 302c0,6 -2,12 -6,16 -4,4 -9,6 -16,6 -7,0 -13,-2 -17,-6 -3,-4 -5,-10 -5,-16 0,-7 2,-13 5,-17 4,-4 10,-6 17,-6 7,0 12,2 16,6 4,4 6,10 6,17zm-15 11c1,-2 2,-3 3,-5 0,-2 1,-4 1,-6 0,-3 -1,-5 -1,-7 -1,-2 -2,-3 -3,-4 -1,-2 -2,-2 -3,-3 -1,-1 -3,-1 -4,-1 -2,0 -3,0 -4,1 -1,0 -3,1 -4,2 -1,2 -1,3 -2,5 -1,2 -1,4 -1,7 0,2 0,4 1,6 1,2 1,3 2,5 1,1 2,2 4,2 1,1 2,1 4,1 1,0 3,0 4,-1 1,0 2,-1 3,-2z"/>
  <path id="13" fill="white" fill-rule="nonzero" d="M1128 294c0,2 0,3 -1,5 0,2 -1,4 -3,5 -1,2 -3,3 -5,4 -2,1 -5,1 -8,1l-7 0 0 14 -11 0 0 -43 18 0c3,0 5,0 7,1 2,0 4,1 5,2 2,1 3,2 4,4 1,2 1,4 1,7zm-11 0c0,-1 -1,-2 -1,-3 -1,-1 -2,-2 -2,-2 -2,-1 -3,-1 -4,-1 -1,0 -2,0 -4,0l-2 0 0 13 3 0c2,0 3,0 5,0 1,-1 2,-1 3,-2 0,0 1,-1 1,-2 1,-1 1,-2 1,-3z"/>
  <polygon id="14" fill="white" fill-rule="nonzero" points="1176,323 1165,323 1165,294 1147,323 1136,323 1136,280 1147,280 1147,306 1164,280 1176,280 "/>
 </g>
</svg>
