<?xml version="1.0" encoding="UTF-8"?>
<!DOCTYPE svg PUBLIC "-//W3C//DTD SVG 1.1//EN" "http://www.w3.org/Graphics/SVG/1.1/DTD/svg11.dtd">
<!-- Creator: CorelDRAW X7 -->
<svg xmlns="http://www.w3.org/2000/svg" xml:space="preserve" width="1417px" height="354px" version="1.1" shape-rendering="geometricPrecision" text-rendering="geometricPrecision" image-rendering="optimizeQuality" fill-rule="evenodd" clip-rule="evenodd"
viewBox="0 0 1454 363"
 xmlns:xlink="http://www.w3.org/1999/xlink">
 <g id="Layer_x0020_1">
  <metadata id="CorelCorpID_0Corel-Layer"/>
  <path fill="#00ACE7" d="M47 0l1360 0c26,0 47,21 47,47l0 270c0,25 -21,46 -47,46l-1360 0c-26,0 -47,-21 -47,-46l0 -270c0,-26 21,-47 47,-47z"/>
  <g id="_821088236480">
   <path fill="white" d="M147 42c-13,1 -61,23 -62,135 -2,118 49,143 62,143l0 -78c-11,0 -13,-12 -16,-37 -1,-16 -2,-36 0,-56 2,-14 4,-27 16,-27l0 -80z"/>
   <path fill="white" d="M183 320c5,0 8,-4 8,-9l1 0c0,0 -1,-61 -1,-61 0,-5 -3,-8 -8,-8l-22 0 0 78c0,0 22,0 22,0l0 0z"/>
   <path fill="white" d="M183 122c5,0 8,-4 8,-9l1 0c0,0 -1,-62 -1,-63 0,-4 -3,-8 -8,-8l-22 0 0 80 22 0 0 0z"/>
  </g>
  <path fill="white" fill-rule="nonzero" d="M362 156c0,30 -4,54 -11,71 -7,17 -17,25 -30,25 -13,0 -23,-9 -31,-26 -7,-17 -11,-41 -11,-71 0,-31 4,-54 11,-72 8,-17 18,-25 31,-25 13,0 23,8 30,25 8,18 11,42 11,73zm-55 -1c0,20 1,35 3,45 2,9 6,14 11,14 4,0 8,-5 10,-15 2,-9 3,-24 3,-44 0,-21 -1,-35 -3,-45 -2,-10 -6,-14 -10,-14 -5,0 -9,4 -11,14 -2,9 -3,24 -3,45z"/>
  <path id="1" fill="white" fill-rule="nonzero" d="M417 132c4,0 7,-2 9,-6 3,-4 4,-9 4,-16 0,-7 -1,-12 -4,-16 -2,-3 -5,-5 -9,-5 -4,0 -8,2 -10,5 -2,4 -3,9 -3,16 0,7 1,12 3,16 3,4 6,6 10,6zm0 82c4,0 8,-2 11,-6 3,-5 4,-11 4,-18 0,-8 -1,-14 -4,-19 -3,-4 -7,-6 -11,-6 -5,0 -9,2 -11,6 -3,5 -4,11 -4,19 0,7 1,13 4,18 2,4 6,6 11,6zm19 -67c7,2 13,7 17,16 4,8 6,19 6,32 0,18 -4,32 -11,42 -8,10 -18,15 -31,15 -14,0 -24,-5 -31,-15 -8,-10 -11,-24 -11,-42 0,-13 2,-24 6,-32 4,-9 9,-14 16,-16 -5,-3 -10,-7 -13,-14 -3,-7 -5,-15 -5,-25 0,-16 4,-28 10,-37 7,-9 16,-13 28,-13 11,0 21,4 27,13 7,9 10,21 10,37 0,10 -1,18 -5,25 -3,7 -7,11 -13,14z"/>
  <path id="2" fill="white" fill-rule="nonzero" d="M514 152c5,0 9,-3 12,-8 3,-5 4,-12 4,-21 0,-8 -1,-16 -4,-21 -3,-5 -7,-7 -12,-7 -5,0 -9,2 -12,7 -3,5 -5,13 -5,21 0,9 2,16 5,21 3,5 7,8 12,8zm1 30c-2,1 -3,2 -5,2 -2,1 -4,1 -6,1 -10,0 -17,-6 -24,-17 -6,-11 -9,-25 -9,-42 0,-21 4,-38 12,-50 7,-12 17,-19 30,-19 13,0 23,6 31,19 7,12 11,29 11,49 0,11 -2,23 -4,35 -3,13 -8,28 -16,47l-15 40 -31 0 26 -65z"/>
  <path id="3" fill="white" fill-rule="nonzero" d="M610 152c5,0 9,-3 12,-8 3,-5 4,-12 4,-21 0,-8 -1,-16 -4,-21 -3,-5 -7,-7 -12,-7 -5,0 -9,2 -12,7 -3,5 -5,13 -5,21 0,9 2,16 5,21 3,5 7,8 12,8zm1 30c-1,1 -3,2 -5,2 -2,1 -4,1 -6,1 -10,0 -17,-6 -23,-17 -7,-11 -10,-25 -10,-42 0,-21 4,-38 12,-50 7,-12 18,-19 30,-19 13,0 23,6 31,19 7,12 11,29 11,49 0,11 -1,23 -4,35 -3,13 -8,28 -16,47l-15 40 -30 0 25 -65z"/>
  <polygon id="4" fill="white" fill-rule="nonzero" points="742,247 742,104 719,104 732,61 770,61 770,247 "/>
  <path id="5" fill="white" fill-rule="nonzero" d="M808 185l28 0 0 3c0,8 1,14 3,19 2,4 6,6 10,6 5,0 8,-2 11,-6 2,-4 3,-10 3,-18 0,-8 -1,-15 -4,-19 -2,-4 -6,-6 -12,-6 -1,0 -2,0 -2,0 -1,0 -1,0 -1,0l0 -30 1 0c5,0 9,-2 12,-5 2,-4 4,-10 4,-17 0,-6 -1,-10 -4,-14 -2,-3 -5,-5 -8,-5 -4,0 -7,1 -9,5 -2,4 -3,8 -4,15l-26 0c0,-18 4,-31 11,-41 7,-10 16,-14 29,-14 11,0 20,4 27,13 6,8 9,20 9,35 0,9 -1,17 -4,24 -3,7 -7,11 -13,14 7,3 12,8 16,16 4,8 6,18 6,31 0,18 -4,33 -12,44 -7,11 -17,17 -30,17 -12,0 -23,-6 -30,-18 -8,-11 -11,-27 -11,-47l0 -2z"/>
  <path id="6" fill="white" fill-rule="nonzero" d="M987 156c0,30 -3,54 -11,71 -7,17 -17,25 -30,25 -13,0 -23,-9 -31,-26 -7,-17 -11,-41 -11,-71 0,-31 4,-54 11,-72 8,-17 18,-25 31,-25 13,0 23,8 30,25 8,18 11,42 11,73zm-55 -1c0,20 1,35 3,45 2,9 6,14 11,14 5,0 8,-5 10,-15 2,-9 4,-24 4,-44 0,-21 -2,-35 -4,-45 -2,-10 -5,-14 -10,-14 -5,0 -9,4 -11,14 -2,9 -3,24 -3,45z"/>
  <polygon id="7" fill="white" fill-rule="nonzero" points="1079,247 1079,104 1055,104 1068,61 1106,61 1106,247 "/>
  <path id="8" fill="white" fill-rule="nonzero" d="M1144 185l28 0 0 3c0,8 1,14 4,19 2,4 5,6 10,6 4,0 8,-2 10,-6 3,-4 4,-10 4,-18 0,-8 -1,-15 -4,-19 -3,-4 -7,-6 -12,-6 -1,0 -2,0 -2,0 -1,0 -1,0 -2,0l0 -30 2 0c5,0 9,-2 11,-5 3,-4 4,-10 4,-17 0,-6 -1,-10 -3,-14 -2,-3 -5,-5 -9,-5 -4,0 -6,1 -9,5 -2,4 -3,8 -3,15l-26 0c0,-18 3,-31 10,-41 7,-10 17,-14 30,-14 11,0 20,4 26,13 7,8 10,20 10,35 0,9 -2,17 -5,24 -3,7 -7,11 -13,14 7,3 13,8 16,16 4,8 6,18 6,31 0,18 -4,33 -11,44 -8,11 -18,17 -30,17 -13,0 -23,-6 -30,-18 -8,-11 -12,-27 -12,-47l0 -2z"/>
  <path id="9" fill="white" fill-rule="nonzero" d="M1324 156c0,30 -4,54 -11,71 -8,17 -18,25 -31,25 -13,0 -23,-9 -30,-26 -8,-17 -11,-41 -11,-71 0,-31 3,-54 11,-72 7,-17 17,-25 30,-25 13,0 24,8 31,25 7,18 11,42 11,73zm-56 -1c0,20 1,35 4,45 2,9 5,14 10,14 5,0 9,-5 11,-15 2,-9 3,-24 3,-44 0,-21 -1,-35 -3,-45 -2,-10 -6,-14 -11,-14 -5,0 -8,4 -10,14 -3,9 -4,24 -4,45z"/>
  <polygon fill="white" fill-rule="nonzero" points="464,328 453,328 453,293 436,293 436,328 425,328 425,285 464,285 "/>
  <path id="1" fill="white" fill-rule="nonzero" d="M518 307c0,7 -2,12 -6,16 -4,4 -10,6 -17,6 -7,0 -12,-2 -16,-6 -4,-4 -6,-9 -6,-16 0,-7 2,-13 6,-17 4,-4 9,-6 16,-6 7,0 13,2 17,6 4,4 6,10 6,17zm-15 11c1,-2 2,-3 2,-5 1,-2 1,-4 1,-6 0,-3 0,-5 -1,-7 -1,-2 -1,-3 -2,-4 -1,-2 -2,-2 -4,-3 -1,0 -2,-1 -4,-1 -1,0 -3,1 -4,1 -1,1 -2,1 -3,3 -1,1 -2,2 -3,4 0,2 -1,4 -1,7 0,2 1,5 1,6 1,2 2,4 3,5 1,1 2,2 3,2 1,1 3,1 4,1 2,0 3,0 4,-1 2,0 3,-1 4,-2z"/>
  <path id="2" fill="white" fill-rule="nonzero" d="M560 316c0,2 -1,4 -2,5 0,2 -2,3 -3,5 -2,1 -4,2 -7,2 -2,1 -5,1 -9,1 -3,0 -6,0 -9,0 -2,-1 -5,-2 -7,-2l0 -10 1 0c1,0 1,0 2,1 2,1 3,1 4,2 1,0 2,0 4,1 1,0 2,0 4,0 1,0 3,0 4,0 1,0 2,-1 3,-1 1,-1 2,-2 2,-2 1,-1 1,-2 1,-3 0,-1 0,-2 0,-3 -1,-1 -1,-1 -2,-2 -1,0 -2,0 -3,-1 -1,0 -2,0 -4,0l-8 0 0 -8 8 0c2,0 3,0 4,0 1,0 2,0 2,-1 1,0 1,-1 2,-1 0,-1 0,-2 0,-3 0,-1 -1,-2 -2,-3 -2,0 -4,-1 -6,-1 -2,0 -3,0 -4,1 -2,0 -3,0 -4,1 -1,0 -2,1 -3,1 -1,0 -2,1 -3,1l-1 0 0 -9c2,-1 5,-1 8,-2 3,-1 6,-1 9,-1 6,0 10,1 13,3 3,2 5,4 5,8 0,2 -1,4 -3,6 -1,2 -4,3 -6,4l0 0c1,0 2,1 3,1 1,0 2,1 3,2 1,1 2,2 3,3 0,1 1,3 1,5z"/>
  <path id="3" fill="white" fill-rule="nonzero" d="M606 315c0,2 -1,4 -2,6 0,1 -2,3 -3,4 -2,1 -4,2 -6,3 -2,0 -4,0 -8,0l-19 0 0 -43 17 0c4,0 6,0 8,0 2,1 3,1 5,2 2,1 3,2 4,3 0,2 1,3 1,5 0,2 -1,4 -2,6 -1,1 -3,2 -5,3l0 1c3,0 6,1 7,3 2,2 3,4 3,7zm-15 -18c0,0 0,-1 0,-2 -1,-1 -1,-1 -2,-2 -1,0 -2,0 -3,0 -1,0 -3,0 -5,0l-1 0 0 9 1 0c2,0 4,0 5,0 1,0 2,0 3,-1 1,0 2,-1 2,-1 0,-1 0,-2 0,-3zm3 18c0,-1 0,-2 -1,-3 0,-1 -1,-2 -2,-2 -1,0 -3,0 -4,0 -2,0 -3,0 -5,0l-2 0 0 11 1 0c3,0 5,0 6,-1 2,0 3,0 4,0 1,-1 2,-1 2,-2 1,-1 1,-2 1,-3z"/>
  <path id="4" fill="white" fill-rule="nonzero" d="M648 315c0,-1 0,-2 0,-2 0,-1 0,-1 -1,-2 0,-1 -1,-1 -2,-1 -1,-1 -2,-1 -4,-1l-7 0 0 11 7 0c1,0 3,0 4,0 0,0 1,-1 2,-1 0,-1 1,-1 1,-2 0,-1 0,-1 0,-2zm12 0c0,2 0,4 -1,5 -1,2 -2,4 -3,5 -2,1 -4,2 -6,3 -2,0 -4,0 -7,0l-20 0 0 -35 -13 0 0 -8 24 0 0 16 9 0c3,0 6,0 8,1 2,0 3,1 5,2 1,1 2,3 3,5 1,1 1,3 1,6z"/>
  <polygon id="5" fill="white" fill-rule="nonzero" points="707,328 696,328 696,309 680,309 680,328 668,328 668,285 680,285 680,301 696,301 696,285 707,285 "/>
  <polygon id="6" fill="white" fill-rule="nonzero" points="758,328 747,328 747,300 729,328 718,328 718,285 729,285 729,311 746,285 758,285 "/>
  <polygon id="7" fill="white" fill-rule="nonzero" points="829,328 818,328 818,300 800,328 789,328 789,285 800,285 800,311 817,285 829,285 "/>
  <path id="8" fill="white" fill-rule="nonzero" d="M894 316c0,2 0,4 -1,5 -1,2 -2,3 -4,5 -2,1 -4,2 -7,2 -2,1 -5,1 -9,1 -3,0 -6,0 -8,0 -3,-1 -6,-2 -8,-2l0 -10 1 0c1,0 2,0 3,1 1,1 2,1 3,2 1,0 3,0 4,1 1,0 3,0 4,0 2,0 3,0 4,0 2,0 3,-1 4,-1 1,-1 1,-2 2,-2 0,-1 0,-2 0,-3 0,-1 0,-2 0,-3 0,-1 -1,-1 -2,-2 0,0 -1,0 -2,-1 -2,0 -3,0 -4,0l-8 0 0 -8 7 0c2,0 3,0 4,0 1,0 2,0 3,-1 0,0 1,-1 1,-1 0,-1 0,-2 0,-3 0,-1 -1,-2 -2,-3 -1,0 -3,-1 -6,-1 -1,0 -3,0 -4,1 -1,0 -3,0 -4,1 -1,0 -2,1 -3,1 -1,0 -1,1 -2,1l-1 0 0 -9c2,-1 4,-1 7,-2 3,-1 6,-1 9,-1 6,0 10,1 13,3 3,2 5,4 5,8 0,2 -1,4 -3,6 -1,2 -3,3 -6,4l0 0c1,0 2,1 4,1 1,0 2,1 3,2 1,1 2,2 2,3 1,1 1,3 1,5z"/>
  <path id="9" fill="white" fill-rule="nonzero" d="M943 328l-12 0 -3 -8 -16 0 -3 8 -11 0 16 -43 13 0 16 43zm-17 -16l-6 -16 -5 16 11 0z"/>
  <polygon id="10" fill="white" fill-rule="nonzero" points="983,293 970,293 970,328 958,328 958,293 945,293 945,285 983,285 "/>
  <path id="11" fill="white" fill-rule="nonzero" d="M1027 315c0,2 0,4 -1,6 -1,1 -2,3 -4,4 -1,1 -3,2 -5,3 -2,0 -5,0 -8,0l-19 0 0 -43 17 0c3,0 6,0 8,0 1,1 3,1 4,2 2,1 3,2 4,3 1,2 1,3 1,5 0,2 0,4 -1,6 -1,1 -3,2 -5,3l0 1c3,0 5,1 7,3 1,2 2,4 2,7zm-14 -18c0,0 0,-1 -1,-2 0,-1 -1,-1 -2,-2 0,0 -1,0 -3,0 -1,0 -3,0 -5,0l-1 0 0 9 2 0c2,0 3,0 5,0 1,0 2,0 2,-1 1,0 2,-1 2,-1 1,-1 1,-2 1,-3zm3 18c0,-1 -1,-2 -1,-3 -1,-1 -2,-2 -3,-2 -1,0 -2,0 -4,0 -1,0 -3,0 -4,0l-3 0 0 11 1 0c3,0 5,0 7,-1 1,0 2,0 4,0 1,-1 1,-1 2,-2 0,-1 1,-2 1,-3z"/>
  <path id="12" fill="white" fill-rule="nonzero" d="M1078 307c0,7 -2,12 -6,16 -4,4 -10,6 -17,6 -7,0 -12,-2 -16,-6 -4,-4 -6,-9 -6,-16 0,-7 2,-13 6,-17 4,-4 9,-6 16,-6 7,0 13,2 17,6 4,4 6,10 6,17zm-15 11c1,-2 2,-3 2,-5 1,-2 1,-4 1,-6 0,-3 0,-5 -1,-7 0,-2 -1,-3 -2,-4 -1,-2 -2,-2 -3,-3 -2,0 -3,-1 -5,-1 -1,0 -2,1 -4,1 -1,1 -2,1 -3,3 -1,1 -2,2 -2,4 -1,2 -1,4 -1,7 0,2 0,5 1,6 0,2 1,4 2,5 1,1 2,2 3,2 2,1 3,1 4,1 2,0 3,0 5,-1 1,0 2,-1 3,-2z"/>
  <path id="13" fill="white" fill-rule="nonzero" d="M1122 299c0,2 0,4 -1,5 0,2 -1,4 -3,5 -1,2 -3,3 -5,4 -3,1 -5,1 -8,1l-7 0 0 14 -12 0 0 -43 19 0c3,0 5,0 7,1 2,0 3,1 5,2 2,1 3,2 4,4 1,2 1,4 1,7zm-11 0c0,-1 -1,-2 -1,-3 -1,-1 -2,-2 -3,-2 -1,-1 -2,-1 -3,-1 -1,0 -3,0 -4,0l-2 0 0 13 3 0c2,0 3,0 5,0 1,0 2,-1 3,-2 0,0 1,-1 1,-2 1,-1 1,-2 1,-3z"/>
  <polygon id="14" fill="white" fill-rule="nonzero" points="1170,328 1159,328 1159,300 1141,328 1130,328 1130,285 1141,285 1141,311 1158,285 1170,285 "/>
 </g>
</svg>
