<?xml version="1.0" encoding="UTF-8"?>
<!DOCTYPE svg PUBLIC "-//W3C//DTD SVG 1.1//EN" "http://www.w3.org/Graphics/SVG/1.1/DTD/svg11.dtd">
<!-- Creator: CorelDRAW X7 -->
<svg xmlns="http://www.w3.org/2000/svg" xml:space="preserve" width="1065px" height="496px" version="1.1" shape-rendering="geometricPrecision" text-rendering="geometricPrecision" image-rendering="optimizeQuality" fill-rule="evenodd" clip-rule="evenodd"
viewBox="0 0 829 386"
 xmlns:xlink="http://www.w3.org/1999/xlink">
 <g id="Layer_x0020_1">
  <metadata id="CorelCorpID_0Corel-Layer"/>
  <path fill="#393185" fill-rule="nonzero" d="M230 259c0,1 -1,1 -2,1 -1,0 -2,0 -3,-1 -1,-1 -3,-2 -3,-3 -1,0 -1,-1 -1,-3 0,0 0,-1 0,-2 1,-3 2,-5 2,-6 1,-2 2,-3 2,-5 1,-1 2,-3 2,-5 1,-2 2,-4 3,-7 -1,0 -2,1 -3,1 -1,0 -1,0 -2,0 0,0 -1,0 -1,-1 0,0 0,-1 0,-3 -1,-2 -1,-3 -1,-4 0,-1 1,-1 2,-2 0,0 1,0 3,0 2,-1 5,-1 7,-1 3,0 5,0 6,0 1,0 2,0 2,0 1,0 1,0 2,1 1,1 1,2 3,3 0,1 0,2 0,2 0,1 0,1 -1,2 0,1 -1,1 -2,1 0,0 -1,0 -1,0 -1,0 -1,0 -2,0 0,0 -1,0 -2,1 0,0 0,1 0,1 0,0 0,1 0,1 0,0 0,1 0,2 -5,12 -8,21 -10,27z"/>
  <path fill="#393185" fill-rule="nonzero" d="M269 257c-1,3 -2,4 -4,4 -1,0 -2,0 -3,-1 -1,0 -1,0 -2,-1 0,0 -1,0 -1,0 0,0 0,-1 -1,-1 0,0 -1,0 -1,-1 0,0 -1,0 -1,-1 0,-1 1,-2 2,-4 0,-2 1,-3 1,-3 -2,0 -3,0 -5,0 0,1 -1,2 -1,3 -1,1 -1,2 -1,3 -1,2 -1,2 -2,3 0,1 -1,1 -1,1 0,1 -1,1 -1,1 -2,0 -3,-1 -4,-1 0,-1 -1,-2 -3,-3 0,-1 0,-1 0,-1 0,0 -1,-1 -1,-1 0,0 0,-1 0,-1 0,-1 0,-1 0,-2 1,-1 1,-1 1,-2 0,0 0,0 1,0 0,0 0,-1 0,-1 0,0 0,-1 0,-1 0,-1 0,-2 0,-3 0,0 0,-1 0,-1 0,0 0,-1 1,-1 1,0 1,-1 2,-1 0,0 0,0 1,-1 0,0 0,0 1,-1 2,-3 3,-5 4,-7 1,-2 2,-3 3,-5 1,-1 2,-3 4,-4 1,-2 3,-4 5,-6 1,0 1,0 2,0 1,0 1,0 2,0 1,0 2,1 4,2 0,0 0,1 1,1 0,0 0,0 1,1 0,0 0,0 0,1 0,0 0,1 -1,2 1,1 2,1 2,1 1,1 1,2 1,2 0,2 0,2 0,3 0,2 -1,5 -1,8 -1,4 -2,7 -3,11 -1,4 -2,6 -2,8zm-7 -18c1,-2 2,-5 2,-8 -2,3 -4,6 -5,9 0,0 0,0 1,0 1,0 1,0 2,-1z"/>
  <path fill="#393185" fill-rule="nonzero" d="M311 217c1,0 1,0 2,0 1,1 1,1 1,2 2,2 2,4 2,5 0,1 0,1 0,1 0,0 0,1 0,1 0,0 -1,1 -1,1 0,1 -1,2 -3,4 -1,2 -2,4 -4,6 -2,1 -3,3 -5,3 0,4 1,8 1,10 1,2 2,4 2,6 1,0 1,1 1,2 0,1 0,1 0,1 -1,1 -2,1 -3,1 -1,0 -2,1 -3,1 -1,0 -1,0 -1,1 -1,0 -1,0 -1,0 0,0 0,0 -1,0 0,0 -1,0 -2,0 -1,-1 -1,-1 -2,-2 -1,-1 -1,-2 -2,-5 0,-2 0,-5 0,-9 -1,1 -1,2 -2,4 -1,1 -1,3 -2,4 0,2 -1,3 -1,3 -1,2 -2,3 -3,3 0,0 0,0 -1,0 0,0 0,-1 -1,-1 0,0 0,0 -1,0 -1,0 -2,0 -2,-1 -1,0 -1,0 -2,-1 0,0 0,-1 -1,-1 0,-1 0,-1 0,-3 0,0 0,0 0,-1 0,0 0,0 0,-1 0,0 0,0 1,-1 0,-1 1,-3 2,-6 2,-2 3,-5 4,-9 2,-4 3,-7 4,-10 2,-3 2,-5 3,-7 0,-1 1,-1 3,-1 0,0 1,0 3,1 1,0 2,1 3,1 1,1 2,2 2,3 0,0 0,1 0,1 -1,1 -1,3 -2,5 -1,2 -2,3 -2,4 2,-1 3,-3 6,-6 2,-3 4,-5 5,-8 1,-1 2,-1 3,-1z"/>
  <path fill="#393185" fill-rule="nonzero" d="M338 227c-1,0 -1,0 -1,0 -3,3 -4,5 -6,8 -1,2 -3,5 -3,7 -1,2 -1,4 -1,4 0,2 0,3 2,3 0,0 1,0 2,-1 2,0 2,-1 3,-1 1,-1 2,-1 3,-1 1,0 2,0 2,1 0,0 0,0 0,1 1,0 1,0 1,1 0,0 0,1 0,1 0,1 0,2 -1,3 0,2 -1,2 -1,3 -1,0 -3,1 -5,2 -1,1 -2,2 -3,2 -1,0 -2,1 -4,1 -2,0 -3,-1 -4,-1 -2,-1 -3,-3 -6,-5 -1,-1 -2,-3 -2,-6 0,-2 0,-4 1,-7 1,-2 1,-4 2,-7 1,-2 2,-4 4,-6 1,-2 2,-4 4,-5 2,-3 5,-4 7,-6 3,-1 5,-1 7,-1 1,0 4,0 6,2 1,0 2,1 2,2 1,1 2,2 2,3 0,2 -1,3 -1,5 -1,2 -1,3 -2,3 0,1 -1,1 -3,2 -1,0 -3,1 -3,1 -1,0 -2,-1 -3,-1 -1,-1 -1,-2 -1,-3 0,0 0,-1 1,-2 0,-1 1,-1 1,-2z"/>
  <path fill="#393185" fill-rule="nonzero" d="M368 224c0,0 -1,1 -2,3 -1,2 -1,4 -2,5 0,1 -1,3 -1,4 0,-1 2,-3 3,-5 2,-2 3,-4 5,-6 2,-2 4,-5 6,-7 0,-1 1,-1 2,-1 0,0 0,0 1,0 0,0 1,1 1,1 2,2 3,3 4,4 0,0 1,1 1,2 0,0 -1,1 -1,2 -1,2 -2,4 -3,6 -2,3 -3,5 -4,8 -1,2 -2,5 -3,8 0,2 -1,5 -1,7 -1,3 -2,5 -4,5 -1,0 -2,0 -2,0 0,0 -1,-1 -2,-1 0,0 -1,-1 -1,-1 -2,0 -3,-1 -3,-3 0,-1 0,-1 1,-3 0,-1 1,-2 1,-3 1,-2 1,-3 2,-5 1,-2 1,-3 1,-4 -1,2 -2,4 -4,6 -1,2 -2,3 -3,4 -1,2 -2,3 -2,4 -1,1 -2,3 -3,4 0,1 0,1 -1,1 0,0 -1,1 -1,1 -1,0 -2,-1 -3,-2 0,-1 -1,-1 -2,-2 0,0 -1,-1 -1,-1 -1,-1 -1,-1 -1,-2 0,-1 0,-2 1,-3 1,-4 2,-8 4,-12 1,-4 3,-8 4,-12 2,-3 3,-6 4,-8 1,-1 1,-1 3,-1 0,0 2,0 5,2 0,0 1,0 1,1 0,0 0,0 0,1 0,1 0,1 0,3z"/>
  <path fill="#393185" fill-rule="nonzero" d="M381 193c1,0 0,1 -1,2 -1,1 -2,1 -3,2 -6,1 -10,2 -14,2 -2,0 -3,0 -6,-1 -2,0 -5,-1 -9,-3 -4,-1 -6,-2 -6,-2 -5,-2 -8,-4 -8,-8 0,-1 1,-6 2,-13 2,-7 4,-13 5,-17 -4,5 -8,11 -14,19 -5,8 -9,13 -10,17 -1,0 -1,1 -2,2 -1,0 -3,1 -4,1 -3,0 -5,-1 -7,-1 -1,0 -4,-1 -7,-3 -3,-1 -6,-2 -9,-3 -5,-2 -7,-5 -8,-9 0,-1 1,-6 2,-14 2,-9 2,-15 3,-19 -3,4 -5,8 -8,14 -2,6 -5,13 -8,21 -3,7 -5,13 -8,17 0,0 -1,1 -2,2 -2,0 -4,1 -6,1 -1,0 -2,-1 -5,-1 -2,-1 -4,-1 -6,-1 -6,0 -11,-1 -15,-3 -1,-1 -3,-3 -5,-5 -2,-2 -3,-4 -4,-6 0,-1 1,-3 2,-5 1,-3 1,-4 1,-4 8,-13 14,-23 19,-30 4,-7 10,-14 16,-22 5,-8 12,-15 19,-23 4,-3 9,-5 14,-5 1,0 2,0 4,1 2,0 3,1 5,1 2,1 3,1 3,1 7,2 11,3 11,3 1,1 3,1 4,2 2,1 3,2 4,3 1,2 2,4 2,7 1,3 2,7 3,12 1,-1 5,-5 13,-11 7,-6 13,-11 19,-15 6,-3 10,-5 14,-5 6,0 14,3 25,11 2,2 4,4 4,7 0,2 -1,5 -3,9 -2,6 -4,11 -6,17 -2,6 -4,12 -5,18 -1,6 -3,12 -3,18 -1,6 -1,12 -2,19z"/>
  <path fill="#393185" fill-rule="nonzero" d="M493 116c-5,3 -9,9 -14,16 1,0 4,0 9,0 4,0 7,0 9,0 4,0 6,0 7,0 2,0 3,1 4,2 0,1 1,3 3,6 0,1 0,2 0,3 1,2 0,3 -1,4 -4,3 -9,5 -15,5 -10,0 -20,1 -28,2 -4,3 -8,8 -12,16 7,0 15,0 22,-1 7,0 12,-1 14,-1 3,0 5,1 7,2 3,1 4,2 4,4 0,1 0,2 0,2 -1,1 -1,2 -1,2 -1,1 -1,2 -1,2 0,0 0,1 -1,2 0,1 -1,3 -1,4 -1,1 -2,1 -3,2 -4,2 -13,4 -28,5 -14,2 -24,3 -30,3 -4,0 -8,-2 -13,-5 -4,-3 -8,-6 -12,-9 -3,-3 -5,-6 -5,-8 0,-2 1,-5 4,-9 2,-5 5,-11 10,-19 -1,-2 -2,-4 -2,-6 0,-2 1,-4 4,-5 2,0 5,-1 7,-1 4,-5 10,-11 17,-19 -3,-5 -5,-9 -5,-11 -1,-1 0,-2 1,-3 1,-1 3,-2 4,-2 5,-1 12,-2 21,-3 10,-2 18,-2 24,-2 7,0 14,0 22,1 2,1 4,1 6,2 2,2 4,4 7,8 3,3 4,5 4,6 0,2 0,3 -2,4 -1,1 -3,1 -6,1 -2,0 -5,0 -9,0 -3,-1 -6,-1 -7,-1 -4,0 -9,0 -14,1z"/>
  <path fill="#393185" fill-rule="nonzero" d="M646 113c0,1 -1,2 -3,2 -1,1 -3,1 -5,1 -3,0 -6,0 -9,0 -3,0 -6,0 -8,0 -5,0 -11,0 -19,1 1,5 -2,13 -7,23 -6,9 -12,19 -18,27 -6,9 -13,17 -19,25 0,1 -1,1 -2,2 -1,0 -2,1 -4,1 -2,0 -4,-1 -5,-1 -1,0 -2,-1 -4,-2 -2,-1 -4,-2 -6,-3 -2,0 -4,-1 -6,-1 -2,0 -4,0 -7,-1 -3,-1 -5,-3 -6,-6 0,-2 1,-4 1,-5 7,-8 13,-16 19,-24 6,-8 11,-15 15,-21 3,-5 6,-10 9,-13 -1,-1 -2,-3 -3,-4 -1,-2 -2,-3 -3,-5 -1,-2 -2,-4 -2,-6 0,0 1,-1 1,-2 1,-1 2,-2 3,-2 4,-1 10,-2 19,-3 4,-1 11,-1 19,-2 7,0 12,0 14,0l10 0c4,0 6,0 8,1 7,2 11,4 15,6 1,1 1,2 2,3 0,1 0,4 1,9z"/>
  <path fill="#393185" fill-rule="nonzero" d="M726 188c-3,6 -8,10 -15,10 -3,0 -7,-1 -11,-2 -2,-1 -4,-2 -6,-2 -2,-1 -4,-2 -4,-2 -1,0 -2,-1 -5,-1 -2,-1 -4,-2 -5,-2 -1,-1 -2,-2 -2,-3 0,-2 1,-4 4,-9 3,-4 4,-7 5,-8 -6,0 -12,0 -19,1 -1,2 -2,4 -4,6 -2,3 -3,6 -5,8 -1,3 -3,5 -4,7 -2,1 -3,2 -4,3 -1,0 -3,0 -6,0 -5,0 -9,0 -12,-2 -3,-1 -7,-3 -12,-7 -1,-1 -2,-1 -3,-2 -1,-1 -2,-1 -2,-2 -1,-1 -1,-2 -1,-3 -1,-1 0,-3 1,-4 1,-1 2,-3 3,-4 1,0 1,0 1,-1 1,-1 1,-1 2,-2 0,-1 0,-1 0,-2 0,-2 0,-5 -1,-7 0,-2 0,-3 0,-3 0,0 1,-1 3,-2 2,-1 4,-2 6,-2 2,0 4,-1 5,-2 1,-1 2,-2 3,-4 7,-7 11,-12 15,-15 3,-4 7,-8 11,-11 4,-4 9,-7 14,-11 5,-4 12,-8 19,-12 2,-2 5,-2 8,-2 2,0 4,0 7,1 3,1 8,2 14,5 2,0 3,1 5,1 1,1 2,1 3,2 1,1 2,1 2,2 0,2 -1,4 -4,6 4,1 6,2 9,3 2,2 3,3 4,5 0,3 0,5 0,5 0,5 -2,12 -4,20 -2,9 -5,17 -8,25 -3,8 -6,15 -7,19zm-31 -41c4,-6 7,-12 9,-19 -9,6 -15,12 -20,19 0,1 2,1 4,1 4,-1 7,-1 7,-1z"/>
  <path fill="#E31E24" fill-rule="nonzero" d="M157 360c-2,8 -7,14 -14,18 -7,4 -15,6 -24,6 -10,0 -17,-2 -21,-6 -4,-5 -5,-11 -2,-18 2,-8 7,-14 14,-18 6,-4 15,-7 24,-7 10,0 17,3 21,7 4,4 4,10 2,18zm-41 0c-2,5 -2,9 -1,11 1,2 3,4 7,4 3,0 6,-2 9,-4 2,-2 4,-6 6,-11 1,-5 2,-9 1,-11 -1,-3 -3,-4 -7,-4 -4,0 -7,1 -9,4 -2,2 -4,6 -6,11z"/>
  <path fill="#E31E24" fill-rule="nonzero" d="M199 354c3,0 6,0 8,-1 2,-1 3,-3 3,-4 1,-2 1,-3 -1,-4 -1,-1 -3,-2 -6,-2 -3,0 -6,1 -8,2 -2,1 -3,2 -4,4 0,1 0,3 2,4 1,1 3,1 6,1zm-6 21c3,0 6,-1 8,-2 3,-1 4,-3 5,-4 0,-2 0,-4 -2,-5 -1,-1 -4,-2 -8,-2 -3,0 -6,1 -8,2 -3,1 -4,3 -5,5 0,1 0,3 2,4 2,1 4,2 8,2zm19 -17c5,0 9,2 11,4 2,2 3,5 2,8 -1,4 -5,8 -11,10 -7,3 -15,4 -24,4 -10,0 -17,-1 -22,-4 -5,-2 -6,-6 -5,-10 1,-3 3,-6 7,-8 4,-2 8,-4 14,-4 -4,-1 -7,-2 -9,-4 -2,-1 -2,-3 -2,-6 2,-4 5,-7 11,-9 5,-2 12,-4 21,-4 9,0 15,2 19,4 5,2 6,5 5,9 -1,3 -3,5 -6,6 -3,2 -6,3 -11,4z"/>
  <path fill="#E31E24" fill-rule="nonzero" d="M266 354c2,0 5,0 7,-1 2,-1 3,-3 4,-4 0,-2 0,-3 -1,-4 -2,-1 -4,-2 -7,-2 -3,0 -5,1 -8,2 -2,1 -3,2 -3,4 -1,1 0,3 1,4 1,1 4,1 7,1zm-7 21c3,0 6,-1 9,-2 2,-1 4,-3 4,-4 1,-2 0,-4 -1,-5 -2,-1 -5,-2 -8,-2 -4,0 -6,1 -9,2 -2,1 -4,3 -4,5 -1,1 0,3 1,4 2,1 5,2 8,2zm20 -17c5,0 8,2 11,4 2,2 3,5 1,8 -1,4 -5,8 -11,10 -6,3 -14,4 -24,4 -10,0 -17,-1 -22,-4 -4,-2 -6,-6 -4,-10 1,-3 3,-6 7,-8 3,-2 8,-4 13,-4 -4,-1 -7,-2 -9,-4 -2,-1 -2,-3 -1,-6 1,-4 4,-7 10,-9 6,-2 13,-4 21,-4 9,0 16,2 20,4 4,2 5,5 4,9 -1,3 -3,5 -5,6 -3,2 -7,3 -11,4z"/>
  <path fill="#E31E24" fill-rule="nonzero" d="M357 360c-4,0 -7,1 -9,2 -3,2 -5,3 -5,6 -1,2 0,4 1,5 2,1 5,2 9,2 3,0 7,-1 9,-2 3,-1 5,-3 5,-5 1,-3 0,-4 -1,-6 -2,-1 -5,-2 -9,-2zm2 -7c1,0 2,0 4,-1 1,0 3,0 4,0 7,0 12,2 16,4 4,3 5,7 4,11 -2,5 -6,9 -13,13 -7,3 -15,4 -24,4 -9,0 -16,-1 -21,-4 -5,-4 -6,-8 -4,-13 0,-3 2,-5 5,-8 3,-3 8,-7 16,-12l14 -11 23 0 -24 17z"/>
  <path fill="#E31E24" fill-rule="nonzero" d="M454 360c-2,8 -6,14 -13,18 -7,4 -15,6 -25,6 -9,0 -16,-2 -20,-6 -4,-5 -5,-11 -3,-18 3,-8 7,-14 14,-18 7,-4 15,-7 25,-7 9,0 16,3 20,7 4,4 5,10 2,18zm-40 0c-2,5 -2,9 -1,11 0,2 3,4 6,4 4,0 7,-2 9,-4 3,-2 5,-6 6,-11 2,-5 2,-9 1,-11 -1,-3 -3,-4 -6,-4 -4,0 -7,1 -9,4 -3,2 -5,6 -6,11z"/>
  <path fill="#E31E24" fill-rule="nonzero" d="M523 360c-2,8 -7,14 -14,18 -7,4 -15,6 -24,6 -10,0 -17,-2 -21,-6 -4,-5 -5,-11 -2,-18 2,-8 7,-14 14,-18 6,-4 15,-7 24,-7 10,0 17,3 21,7 4,4 4,10 2,18zm-41 0c-1,5 -2,9 -1,11 1,2 3,4 7,4 3,0 6,-2 9,-4 2,-2 4,-6 6,-11 1,-5 2,-9 1,-11 -1,-3 -3,-4 -7,-4 -3,0 -6,1 -9,4 -2,2 -4,6 -6,11z"/>
  <path fill="#E31E24" fill-rule="nonzero" d="M820 363c-2,7 -7,13 -14,17 -6,4 -15,6 -24,6 -10,0 -16,-2 -21,-6 -4,-4 -5,-10 -2,-18 2,-7 7,-13 14,-18 7,-4 15,-6 24,-6 10,0 17,2 21,6 4,5 5,11 2,19zm-41 -1c-1,5 -2,9 -1,11 1,3 3,4 7,4 3,0 6,-1 9,-4 2,-2 4,-6 6,-11 1,-5 2,-9 1,-11 -1,-2 -3,-4 -7,-4 -3,0 -6,2 -9,4 -2,2 -4,6 -6,11z"/>
  <path fill="#E31E24" fill-rule="nonzero" d="M586 361c-4,0 -7,1 -10,2 -2,2 -4,4 -5,6 0,2 0,4 2,5 2,1 5,2 8,2 4,0 7,-1 10,-2 2,-1 4,-3 5,-5 1,-2 0,-4 -2,-6 -2,-1 -4,-2 -8,-2zm1 -7c2,0 3,-1 5,-1 1,0 2,0 4,0 7,0 12,2 16,4 3,3 4,7 3,11 -2,5 -6,10 -12,13 -7,3 -15,5 -24,5 -10,0 -17,-2 -21,-5 -5,-3 -6,-7 -5,-13 1,-2 3,-5 6,-8 2,-3 8,-7 15,-13l15 -10 23 0 -25 17z"/>
  <path fill="#E31E24" fill-rule="nonzero" d="M685 361c-2,8 -7,14 -14,18 -6,4 -15,6 -24,6 -10,0 -16,-2 -21,-6 -4,-5 -5,-11 -2,-18 2,-8 7,-14 14,-18 7,-4 15,-7 24,-7 10,0 17,3 21,7 4,4 5,10 2,18zm-41 0c-1,5 -2,9 -1,11 1,2 3,4 7,4 3,0 6,-2 9,-4 2,-2 4,-6 6,-11 1,-5 2,-9 1,-11 -1,-3 -3,-4 -7,-4 -3,0 -6,1 -9,4 -2,2 -4,6 -6,11z"/>
  <path fill="#E31E24" fill-rule="nonzero" d="M753 361c-3,8 -7,14 -14,18 -7,4 -15,6 -24,6 -10,0 -17,-2 -21,-6 -4,-5 -5,-11 -2,-18 2,-8 7,-14 13,-18 7,-4 16,-7 25,-7 10,0 17,3 21,7 4,4 4,10 2,18zm-41 0c-2,5 -2,9 -1,11 1,2 3,4 7,4 3,0 6,-2 8,-4 3,-2 5,-6 7,-11 1,-5 2,-9 1,-11 -1,-3 -3,-4 -7,-4 -4,0 -7,1 -9,4 -2,2 -4,6 -6,11z"/>
  <path fill="#E31E24" fill-rule="nonzero" d="M242 320c0,0 -1,1 -1,2 -1,0 -1,0 -2,0 -1,0 -3,0 -6,-2 -1,0 -1,0 -1,-1 0,0 0,-1 0,-2 2,-4 5,-9 9,-15 -1,0 -1,0 -1,0 -1,0 -1,0 -1,0 -1,0 -1,0 -1,0 -1,1 -2,3 -3,4 -1,1 -2,2 -2,4 -1,1 -2,2 -3,4 0,2 -1,4 -2,7 0,0 -1,1 -1,1 0,0 0,0 -1,0 0,0 -1,0 -3,-1 -1,0 -2,0 -2,0 -1,-1 -1,-1 -1,-2 -1,0 -1,-1 -1,-2 0,0 0,-1 0,-1 1,-2 2,-4 3,-6 1,-1 2,-3 3,-5 1,-1 2,-3 3,-4 -1,-1 -1,-2 -1,-3 0,-1 0,-1 1,-1 0,-1 1,-1 1,-1 2,0 4,0 9,0 2,0 5,0 7,0 2,0 3,0 4,0 1,0 1,1 1,1 0,0 0,0 0,1 1,0 1,0 1,1 0,0 0,1 1,1 0,0 0,0 0,1 0,0 0,0 0,0 0,1 -1,1 -1,1 0,0 0,0 0,0 0,0 0,0 0,1 -5,7 -8,12 -9,17zm32 -22c1,0 2,-1 3,-1 0,0 1,1 1,1 1,1 1,2 2,3 0,1 1,2 1,4 0,1 -1,2 -1,3 0,2 -1,3 -2,5 -1,1 -2,2 -3,4 -2,1 -3,2 -5,3 -1,1 -3,1 -5,2 -1,0 -2,0 -3,0 0,0 -1,0 -2,0 -1,0 -3,-1 -4,-2 -1,-1 -2,-2 -2,-2 -1,-1 -1,-2 -1,-3 0,-1 0,-2 0,-3 1,-2 2,-5 4,-7 1,-2 3,-3 4,-5 2,-1 4,-2 6,-3 0,-1 0,-1 1,-1 1,0 1,0 2,0 0,0 1,0 1,0 1,0 2,1 3,2zm-11 17c1,0 2,-1 3,-3 2,-1 3,-2 3,-3 1,-1 2,-2 2,-3 0,-1 0,-1 0,-1 0,-1 0,-1 0,-1 0,0 0,0 -1,0 0,0 0,0 -1,0 -3,4 -6,8 -7,11 0,0 0,0 0,0 0,1 0,1 0,1 1,0 1,0 1,-1zm44 -6c1,0 2,1 2,1 1,1 1,2 1,3 0,1 -1,2 -2,3 -1,1 -2,2 -4,3 -2,1 -4,2 -6,3 -2,0 -4,1 -6,1 0,0 -1,0 -2,-1 -2,0 -3,0 -4,-1 -1,0 -2,-1 -3,-2 0,-1 -1,-2 -1,-3 0,-1 0,-1 1,-1 0,-1 0,-1 1,-1 1,-1 2,-1 4,-1 0,0 1,0 1,0 1,0 1,1 1,1 1,1 1,2 1,2 0,0 1,0 2,0 1,0 1,0 2,0 2,-1 2,-1 3,-2 1,-1 2,-1 2,-2 0,0 -1,0 -1,0 -1,0 -1,0 -1,0 -1,0 -1,0 -1,0 -1,0 -2,0 -2,-1 -1,-1 -1,-2 -2,-2 0,-1 0,-1 0,-2 0,0 0,-1 1,-1 0,0 2,0 4,0 1,-1 2,-2 3,-2 0,0 1,-1 2,-1 0,-1 0,-1 0,-1 0,0 0,-1 -1,-1 -1,0 -2,0 -3,1 -1,0 -2,0 -3,1 -1,0 -1,1 -2,1 -1,0 -1,0 -1,-1 0,0 -1,0 -1,-1 0,0 0,0 -1,0 0,0 0,0 0,-1 0,0 0,0 0,0 0,-1 0,-1 0,-1 0,-1 0,-1 1,-1 1,-1 3,-2 5,-3 2,0 4,0 6,0 2,0 4,0 5,1 2,0 3,1 3,2 1,1 2,2 2,4 0,0 -1,1 -1,1 -1,1 -1,2 -2,3 -1,0 -2,1 -3,2zm35 0c0,0 0,1 1,1 0,1 0,1 0,2 0,1 -1,3 -3,5 -2,2 -4,3 -6,4 -1,1 -3,1 -4,1 -1,0 -2,0 -3,0 -1,-1 -1,-1 -2,-2 0,0 0,1 0,1 -1,0 -1,0 -1,0 0,1 -1,1 -1,1 0,0 0,0 -1,0 0,0 0,0 -1,0 0,0 -1,-1 -1,-1 -1,-1 -1,-1 -1,-1 0,0 0,0 -1,0 0,-1 -1,-1 -1,-1 0,0 -1,-1 -1,-1 0,-1 1,-1 1,-2 3,-4 6,-8 9,-12 -1,-1 -1,-1 -1,-1 -1,-1 -1,-1 -1,-2 0,0 0,-1 0,-3 0,0 0,-1 1,-1 1,0 3,0 5,-1 2,0 4,0 7,0 2,0 4,0 6,0 1,1 3,2 3,3 1,1 2,2 2,4 0,1 -1,2 -2,3 -1,1 -3,2 -4,3zm-3 -7c0,0 -1,0 -2,0 0,0 -1,0 -1,0 -1,1 -1,2 -2,3 1,0 2,-1 3,-1 1,-1 2,-1 2,-2zm-5 10c0,-1 -1,-1 -2,-1 0,0 -1,0 -1,0 0,0 -1,2 -3,4 2,0 3,0 4,-2 1,0 1,0 1,0 0,-1 1,-1 1,-1zm36 -7c0,0 1,0 1,0 0,0 1,0 1,-1 1,0 1,0 2,0 1,0 2,1 3,1 1,1 2,1 2,2 1,1 1,2 1,3 0,1 0,3 -1,4 -1,1 -2,2 -4,3 -1,2 -3,3 -5,4 -1,1 -3,1 -5,2 -1,0 -2,0 -4,0 -2,0 -4,0 -5,-2 -1,-1 -2,-3 -2,-5 0,-1 1,-3 2,-5 2,-3 3,-5 5,-7 0,-1 1,-1 1,-1 0,0 0,0 -1,0 0,0 0,0 0,0 -1,0 -1,0 -1,0 -1,0 -1,0 -1,0 0,0 -1,0 -1,-1 0,0 0,0 0,-1 -1,0 -1,0 -1,-1 0,0 0,-1 0,-1 0,0 0,-1 0,-1 0,0 1,-1 1,-1 3,-1 6,-1 9,-1 2,0 3,0 3,0 1,1 2,2 2,3 1,0 1,1 1,1 0,1 0,1 -1,2 0,1 0,1 -1,2 -1,1 -1,1 -1,1zm-5 11c1,0 1,-1 2,-1 1,-1 2,-2 3,-3 1,-1 1,-1 1,-2 0,0 0,0 -1,0 -1,0 -1,0 -1,-1 -1,0 -1,0 -1,-1 -1,2 -2,3 -3,4 -1,2 -1,2 -1,3 0,0 0,1 1,1zm44 0c0,1 0,1 -1,2 0,1 0,2 0,3 -1,0 -1,1 -1,1 -1,1 -1,1 -2,1 -1,0 -1,0 -1,0 -1,0 -1,0 -2,-1 0,0 -1,0 -2,0 -1,-1 -1,-1 -2,-1 0,-1 0,-1 0,-1 0,-1 0,-1 0,-2 1,-1 1,-2 2,-4 0,-1 1,-2 1,-2 0,0 0,0 -1,0 0,0 0,0 0,0 0,0 -1,0 -1,0 -1,0 -2,1 -2,1 0,0 0,1 -1,2 0,1 -1,2 -1,3 0,1 -1,2 -1,3 -1,1 -1,2 -2,2 0,0 -1,0 -1,-1 -1,0 -2,0 -3,0 0,0 -1,-1 -1,-1 0,0 -1,0 -1,-1 -1,-1 -1,-1 -1,-2 0,-1 1,-3 3,-7 0,0 0,0 0,-1 0,0 0,0 0,-1 0,0 0,-1 0,-1 0,0 0,-1 0,-1 0,0 1,0 1,0 1,0 1,0 2,-1 0,-1 1,-2 1,-3 1,-1 2,-2 2,-3 1,-1 2,-2 2,-3 1,0 1,-1 1,-1 1,0 1,0 2,0 1,0 2,0 3,1 2,1 3,2 3,2 0,1 0,1 -1,2 -1,2 -2,3 -3,4 0,0 0,0 0,0 0,0 0,0 0,0 0,1 0,1 1,1 1,0 2,0 2,0 0,-1 1,-1 1,-1 0,-1 1,-1 2,-2 0,-1 1,-3 2,-4 1,-1 1,-2 2,-2 0,0 0,-1 0,-1 0,0 1,0 1,0 1,0 1,0 2,1 1,0 2,0 2,1 0,0 0,0 0,0 0,1 0,1 1,1 0,1 0,2 0,2 0,1 0,2 0,2 -2,3 -4,5 -5,7 -1,2 -2,4 -3,6zm26 -16c0,0 0,1 -1,2 -1,1 -1,2 -2,3 0,1 0,2 -1,3 1,-1 2,-2 3,-3 1,-2 3,-3 4,-4 2,-2 3,-3 5,-5 0,0 1,0 1,0 1,0 1,0 1,0 1,0 1,0 2,1 1,1 2,1 3,2 0,0 0,1 0,1 0,0 0,1 -1,1 0,2 -1,3 -2,4 -1,2 -2,3 -3,5 -1,1 -1,3 -2,5 -1,1 -1,3 -2,4 0,2 -1,3 -3,3 -1,0 -1,0 -1,0 -1,0 -1,0 -2,0 0,-1 -1,-1 -1,-1 -1,0 -2,-1 -2,-2 0,0 0,-1 0,-1 1,-1 1,-2 1,-3 1,-1 1,-1 2,-3 1,-1 1,-1 1,-2 -1,1 -2,2 -3,4 -1,1 -2,1 -3,2 -1,1 -1,2 -2,3 -1,0 -1,1 -2,2 0,0 0,1 -1,1 0,0 0,0 -1,0 -1,0 -2,0 -2,-1 0,0 -1,-1 -2,-1 0,-1 -1,-1 -1,-1 0,0 0,-1 0,-1 0,-1 0,-1 0,-2 1,-2 2,-5 3,-7 2,-3 3,-5 4,-7 1,-2 2,-4 3,-5 1,-1 1,-1 2,-1 1,0 2,0 5,1 0,0 0,0 1,0 0,1 0,1 0,1 0,1 0,1 -1,2zm48 0c0,0 0,1 -1,2 -1,1 -1,2 -2,3 0,1 -1,2 -1,3 1,-1 2,-2 3,-3 1,-2 2,-3 4,-4 1,-2 3,-3 5,-5 0,0 1,0 1,0 0,0 1,0 1,0 0,0 1,0 1,1 2,1 3,1 3,2 1,0 1,1 1,1 0,0 0,1 -1,1 -1,2 -1,3 -2,4 -1,2 -2,3 -3,5 -1,1 -2,3 -2,5 -1,1 -2,3 -2,4 0,2 -1,3 -3,3 -1,0 -1,0 -2,0 0,0 -1,0 -1,0 -1,-1 -1,-1 -1,-1 -2,0 -2,-1 -2,-2 0,0 0,-1 0,-1 0,-1 1,-2 1,-3 1,-1 1,-1 2,-3 0,-1 1,-1 1,-2 -1,1 -2,2 -3,4 -2,1 -2,1 -3,2 -1,1 -2,2 -2,3 -1,0 -2,1 -2,2 -1,0 -1,1 -1,1 0,0 -1,0 -1,0 -1,0 -2,0 -2,-1 -1,0 -1,-1 -2,-1 -1,-1 -1,-1 -1,-1 -1,0 -1,-1 -1,-1 0,-1 0,-1 1,-2 1,-2 2,-5 3,-7 1,-3 3,-5 4,-7 1,-2 2,-4 3,-5 0,-1 1,-1 2,-1 1,0 2,0 4,1 1,0 1,0 1,0 0,1 1,1 1,1 0,1 -1,1 -1,2z"/>
  <path fill="#E31E24" fill-rule="nonzero" d="M534 308c1,0 1,1 2,2 0,1 0,1 0,2 0,1 0,2 -1,4 -1,1 -3,2 -5,3 -1,1 -3,2 -5,2 -2,1 -4,1 -6,1 -1,0 -2,0 -3,0 -1,-1 -2,-1 -3,-1 -1,-1 -2,-2 -3,-2 -1,-1 -1,-2 -1,-3 0,-1 0,-2 0,-2 0,0 1,-1 1,-1 2,-1 3,-1 4,-1 1,0 1,0 2,1 1,0 1,0 1,1 0,1 0,1 1,1 0,0 1,1 2,1 0,0 1,-1 2,-1 1,0 2,-1 3,-2 1,0 1,-1 1,-1 0,-1 0,-1 -1,-1 0,0 0,0 -1,0 0,0 0,0 -1,0 0,0 -1,0 -2,-1 0,0 -1,-1 -1,-2 0,0 0,-1 0,-1 0,-1 0,-1 0,-2 1,0 2,0 4,0 2,-1 3,-1 3,-2 1,0 2,0 2,-1 1,0 1,0 1,-1 0,0 0,0 -1,0 -2,0 -3,0 -3,0 -1,0 -2,1 -3,1 -1,1 -2,1 -2,1 -1,0 -1,0 -1,0 -1,0 -1,-1 -1,-1 0,0 -1,0 -1,-1 0,0 0,0 -1,0 0,0 0,-1 0,-1 0,0 0,-1 1,-1 0,0 0,0 0,0 2,-2 4,-3 6,-3 2,-1 4,-1 6,-1 2,0 3,0 5,1 1,1 2,1 3,2 1,2 1,3 1,4 0,1 0,1 0,2 -1,1 -2,1 -2,2 -1,1 -2,1 -3,2zm31 12c-1,1 -2,2 -3,2 -1,0 -2,0 -3,0 0,0 0,0 -1,-1 0,0 -1,0 -1,0 0,0 0,0 -1,-1 0,0 -1,0 -1,0 0,0 0,0 0,-1 0,0 0,-1 1,-2 0,-1 1,-2 1,-2 -1,0 -3,0 -4,0 0,0 -1,1 -1,2 -1,1 -1,1 -1,2 -1,0 -1,1 -1,1 -1,1 -1,1 -1,1 0,0 -1,0 -2,0 -1,0 -1,0 -2,0 -1,0 -2,-1 -3,-2 0,0 0,0 0,0 0,-1 -1,-1 -1,-1 0,0 0,-1 0,-1 0,0 0,-1 1,-1 0,0 0,-1 0,-1 0,0 0,0 1,0 0,0 0,-1 0,-1 0,0 0,0 0,0 0,-1 0,-1 0,-2 0,0 0,-1 0,-1 0,0 0,0 1,0 0,-1 1,-1 1,-1 0,0 1,0 1,0 0,-1 0,-1 1,-1 1,-2 2,-4 3,-5 1,0 2,-1 3,-2 1,-1 2,-2 3,-3 1,-1 3,-2 4,-3 1,-1 1,-1 2,-1 0,0 1,0 2,0 0,1 1,1 3,2 0,0 0,0 1,0 0,0 0,0 0,1 1,0 1,0 1,0 0,1 -1,1 -1,2 0,0 1,0 2,1 0,0 0,0 0,1 0,0 0,1 0,1 0,1 0,3 -1,5 -1,3 -1,5 -2,7 -1,2 -2,4 -2,5zm-6 -11c1,-2 2,-3 2,-5 -2,2 -3,3 -4,5 0,0 0,0 1,0 0,0 1,0 1,0zm30 12c0,1 -1,1 -2,1 0,0 -1,0 -2,-1 -1,0 -2,-1 -3,-2 0,0 0,-1 0,-2 0,0 0,0 0,-1 1,-2 1,-3 1,-4 1,-1 1,-2 2,-3 1,-1 1,-2 2,-3 1,-1 1,-2 2,-4 -1,0 -1,0 -2,1 -1,0 -2,0 -2,0 0,0 -1,0 -1,-1 0,0 0,-1 0,-2 0,-1 -1,-2 -1,-2 0,-1 1,-1 2,-1 0,0 1,0 3,-1 1,0 3,0 5,0 2,0 4,0 5,0 1,0 1,0 2,0 0,0 1,0 1,1 1,0 2,1 3,2 0,0 0,0 0,1 0,0 0,0 -1,1 0,0 -1,1 -2,1 0,0 0,0 -1,0 0,0 0,0 -1,0 0,0 -1,0 -2,0 0,0 0,0 0,1 1,0 1,0 1,0 0,1 -1,1 -1,1 -4,8 -7,13 -8,17zm39 -12c0,0 0,0 1,1 0,0 0,1 0,2 0,1 -1,3 -3,5 -2,1 -4,3 -6,4 -1,0 -3,1 -4,1 -1,0 -2,0 -3,-1 0,0 -1,-1 -2,-1 0,0 0,0 0,0 -1,0 -1,1 -1,1 0,0 -1,0 -1,0 0,0 0,0 -1,0 0,0 0,0 -1,0 0,0 -1,0 -1,-1 0,0 -1,0 -1,0 0,0 0,-1 -1,-1 0,0 -1,0 -1,-1 0,0 0,0 0,-1 0,0 0,-1 0,-2 3,-3 6,-7 9,-12 -1,0 -1,-1 -1,-1 -1,0 -1,-1 -1,-1 0,-1 0,-2 0,-3 0,-1 1,-1 1,-1 1,-1 3,-1 5,-1 2,-1 4,-1 7,-1 2,0 4,0 6,1 1,0 3,1 4,2 0,1 1,2 1,4 0,1 -1,2 -2,4 -1,1 -3,2 -4,3zm-3 -7c0,-1 -1,-1 -2,-1 0,0 -1,0 -1,0 -1,1 -1,2 -2,4 1,-1 2,-1 3,-2 1,-1 2,-1 2,-1zm-5 9c0,0 -1,-1 -2,-1 0,0 0,0 -1,0 0,1 -1,2 -3,5 2,0 3,-1 4,-2 1,0 1,-1 1,-1 0,0 1,-1 1,-1zm37 -13c1,-1 2,-1 3,-1 0,0 0,0 1,1 1,0 1,1 2,2 0,1 0,3 0,4 0,1 0,2 0,4 -1,1 -1,3 -2,4 -1,1 -2,3 -4,4 -1,1 -2,2 -4,3 -2,1 -3,2 -5,2 -1,1 -2,1 -3,1 -1,0 -1,0 -2,-1 -2,0 -3,-1 -4,-2 -1,0 -2,-1 -3,-2 0,-1 0,-2 0,-2 0,-1 0,-2 0,-3 1,-3 2,-5 3,-7 2,-2 3,-4 5,-5 1,-1 3,-3 5,-4 1,0 1,0 2,-1 0,0 1,0 1,0 1,0 1,0 2,0 0,1 1,1 3,3zm-11 17c1,-1 2,-2 3,-3 1,-1 2,-3 3,-4 1,-1 2,-2 2,-3 0,0 0,-1 0,-1 0,0 0,-1 -1,-1 0,0 0,0 0,0 0,0 -1,0 -1,1 -4,4 -6,7 -7,10 0,0 0,1 0,1 0,0 0,0 0,0 0,0 1,0 1,0zm50 -12c0,2 -1,3 -3,6 -1,0 -2,1 -3,2 -2,1 -3,2 -5,3 -1,0 -2,1 -3,1 -1,0 -1,-1 -2,-1 -1,-1 -1,-2 -2,-2 -1,1 -1,2 -3,4 -1,3 -1,4 -2,5 0,0 0,1 0,1 -1,0 -1,0 -1,0 0,0 -1,0 -1,0 0,0 0,0 0,0 0,0 0,0 -1,-1 0,0 0,0 0,0 -1,0 -1,-1 -1,-1 -1,0 -1,0 -2,0 0,0 -1,-1 -1,-1 -1,0 -1,-1 -1,-1 0,-1 0,-1 0,-1 0,0 1,-1 2,-3 1,-2 2,-4 3,-5 1,-2 2,-3 3,-5 1,-1 2,-2 2,-3 0,0 0,-1 0,-1 -1,-1 -1,-1 -1,-2 0,0 0,0 0,0 1,-1 1,-1 2,-1 1,0 2,-1 4,-1 1,0 3,0 5,0 3,0 6,0 8,2 1,1 2,2 2,3 1,0 1,1 1,2zm-9 0c0,0 0,0 0,0 0,-1 0,-1 0,-1 0,0 -1,0 -1,0 -1,0 -1,0 -2,0 0,1 -1,2 -3,5 1,0 3,-1 4,-2 1,0 2,-1 2,-2zm26 -4c0,1 0,1 -1,2 -1,2 -1,3 -2,3 0,1 0,2 -1,3 1,-1 2,-2 3,-3 1,-1 3,-2 4,-4 2,-1 3,-3 5,-4 0,-1 1,-1 1,-1 1,0 1,0 1,0 1,0 1,1 2,1 1,1 2,2 3,2 0,1 0,1 0,1 0,1 0,1 -1,2 0,1 -1,2 -2,4 -1,1 -2,3 -3,4 -1,2 -2,3 -2,5 -1,2 -1,3 -2,5 0,2 -1,3 -3,3 -1,0 -1,0 -1,-1 -1,0 -1,0 -2,0 0,0 -1,0 -1,0 -1,-1 -2,-1 -2,-2 0,-1 0,-1 0,-2 1,-1 1,-2 1,-2 1,-1 1,-2 2,-3 0,-1 1,-2 1,-2 -1,1 -2,2 -3,3 -1,1 -2,2 -3,3 -1,1 -1,1 -2,2 -1,1 -1,2 -2,2 0,1 0,1 -1,1 0,0 0,0 -1,0 -1,0 -2,0 -2,-1 0,0 -1,0 -2,-1 0,0 -1,0 -1,-1 0,0 -1,0 -1,-1 0,0 1,-1 1,-1 1,-3 2,-6 3,-8 2,-3 3,-5 4,-7 1,-2 2,-4 3,-5 1,-1 1,-1 2,-1 1,0 2,0 5,1 0,0 0,1 1,1 0,0 0,0 0,1 0,0 0,1 -1,1zm26 12c0,0 0,0 0,1 -1,0 -1,0 -1,0 0,0 -1,0 -1,0 -1,0 -1,0 -1,0 -1,0 -1,0 -1,-1 -1,0 -1,0 -2,-1 0,0 -1,0 -1,-1 0,0 1,-1 1,-1 1,-2 2,-4 4,-7 1,-2 2,-4 4,-6 0,0 1,-1 2,-1 1,0 1,0 2,1 0,0 1,1 3,2 1,0 1,1 1,1 0,1 0,1 -1,2 -4,4 -7,7 -9,11zm-5 10c0,0 0,0 0,0 -1,0 -1,0 -2,0 0,0 -1,0 -3,0 0,0 -1,0 -1,0 0,0 -1,-1 -1,-1 -1,-1 -1,-1 -1,-2 0,-1 0,-1 1,-2 0,-1 1,-2 1,-3 0,0 1,0 1,0 0,0 0,0 1,0 0,0 1,0 1,0 1,0 2,1 4,1 1,1 1,1 1,2 0,0 0,0 0,0 0,0 0,1 0,1 0,0 0,0 0,0 -1,1 -2,2 -2,4z"/>
  <path fill="#393185" d="M791 0c21,0 38,17 38,38 0,21 -17,38 -38,38 -21,0 -38,-17 -38,-38 0,-21 17,-38 38,-38zm0 6c-18,0 -32,14 -32,32 0,18 14,32 32,32 17,0 32,-14 32,-32 0,-18 -15,-32 -32,-32z"/>
  <path fill="#393185" fill-rule="nonzero" d="M786 42l0 17 -11 0 0 -43 16 0c0,0 1,0 2,0 0,0 1,0 1,0 2,0 3,1 5,1 1,0 3,1 4,2 1,1 2,3 3,4 1,2 2,4 2,6l0 0c0,4 -1,7 -3,9 -1,2 -4,3 -7,4l12 17 -14 0 -10 -17zm0 -6c1,0 1,0 1,0 0,1 0,1 0,1 0,0 0,0 0,0 1,0 1,0 1,0 0,0 0,0 0,0 0,0 0,0 0,0 2,0 4,-1 5,-1 2,-1 3,-3 3,-5l0 0c0,-3 -1,-4 -2,-5 -2,0 -4,-1 -6,-1 0,0 0,0 0,0 -1,0 -1,0 -1,0l-1 0 0 11z"/>
  <path fill="#393185" d="M83 13l49 0 0 20 19 0 0 -20 20 0 0 20 20 0 0 -20 19 0 0 20 -20 0 0 19 -19 0 0 -19 -20 0 0 19c-6,0 -13,1 -19,0l0 -19 -19 0c-4,-5 -8,-8 -8,-8 -7,-5 -14,-10 -22,-12zm147 0l19 0 0 20 20 0 0 -20 19 0 0 20 20 0 0 -20 20 0 0 20 19 0 0 -20 20 0 0 20 20 0 0 -20 19 0 0 20 20 0 0 -20 60 0 0 20 20 0 0 -20 21 0 0 20 19 0 0 19 -60 0 0 -19 -19 0 0 19 -22 0 0 -19 -19 0 0 19 -20 0 0 -19 -19 0 0 19 -20 0 0 -19 -20 0 0 19 -19 0 0 -19 -20 0 0 19 -19 0 0 -19 -20 0 0 19 -20 0 0 -19 -19 0 0 19 -20 0 0 -19 20 0 0 -20zm316 0l213 0c0,1 0,1 0,1 -5,7 -9,15 -9,24 0,5 2,10 3,14l-147 0 0 -19 -20 0 0 19 -20 0 0 -19 -20 0 0 -20zm81 0l20 0 0 21 -20 0 0 -21z"/>
  <path fill="#393185" fill-rule="nonzero" d="M128 98l0 0c0,-1 0,-1 0,-1 0,0 0,0 0,0l0 1zm-76 -22c0,0 -5,-1 -6,5 0,0 -2,5 5,6 0,0 5,1 6,-5 0,0 2,-5 -5,-6zm37 7c0,0 6,0 6,6 0,0 0,5 -6,5 0,0 -6,0 -6,-5 0,0 -1,-6 6,-6zm-13 19c0,0 0,0 0,0 2,0 3,-1 5,-1 0,0 0,0 0,0 0,1 0,1 0,1 -2,0 -3,0 -5,1 -1,3 -3,5 -5,6 -3,2 -6,1 -6,1 -7,-2 -7,-8 -7,-10 -2,-1 -3,-1 -3,-2 0,0 0,0 0,0 0,0 0,0 1,0 0,0 7,5 20,4zm7 21l27 13c3,1 5,0 5,0 0,0 12,-11 12,-11 2,-1 2,-2 2,-3 1,-2 1,-3 3,-6 2,-2 4,-3 5,-3 2,-2 4,-3 6,-5 1,0 1,-1 1,-2 0,-2 -1,-3 -2,-5l0 1c0,-1 -3,-3 -3,-7 0,-2 1,-4 3,-6 2,-2 7,-5 13,0 0,0 5,4 5,12 0,1 0,2 0,3 0,0 -1,3 -2,6 1,1 4,2 8,0 1,0 9,-4 15,-1 2,0 4,0 7,1l0 0 0 0c0,0 4,2 5,4 1,1 2,2 3,2l0 0 0 0c1,1 2,2 2,4 0,0 0,0 0,1 0,0 0,0 0,0 1,1 1,2 2,3 1,0 1,1 1,3 0,1 0,2 -2,4 -3,4 -9,2 -11,2 -2,-1 -8,1 -11,3 -1,1 -5,4 -13,5 0,1 0,2 -1,2 -2,4 -8,5 -11,4 -3,0 -5,0 -5,1 0,0 -18,11 -18,12 -2,1 -8,6 -21,-2 -14,-9 -19,-12 -24,-15 0,0 0,0 0,0 1,3 2,8 2,11l0 2c0,0 0,0 0,1 0,0 0,1 0,1 0,0 0,0 0,0 2,1 2,2 2,3 0,1 0,1 0,1 0,0 0,1 0,1 0,0 0,0 0,0 1,0 2,1 2,3 0,0 0,1 0,1 2,1 3,3 3,4 0,1 0,1 1,1 2,2 2,4 2,5 0,1 0,2 0,3l0 0c-2,6 -7,10 -24,11 -17,2 -26,-2 -33,-4l-2 -1c-4,-2 -6,-5 -6,-7 -6,0 -10,-2 -11,-2 -13,-4 -18,-14 -14,-28 3,-14 1,-19 -4,-32 -2,-5 -3,-9 -1,-12 2,-5 6,-6 6,-6l0 0 0 0c11,-3 17,5 18,10 1,3 1,6 1,9 0,2 0,4 0,6 6,-4 11,-6 15,-8 -7,-5 -11,-11 -14,-16 0,-1 -1,-2 -1,-3 -2,2 -4,1 -5,1l1 0c-6,-1 -7,-10 -7,-15 0,0 -1,-1 -1,-1 0,-6 1,-10 3,-13 2,-3 4,-3 4,-3 2,0 3,1 4,1 0,0 -1,-8 2,-17 3,-11 11,-19 22,-24 6,-3 11,-4 15,-5 0,-2 1,-3 2,-3 1,-2 4,-2 4,-2 4,0 6,2 6,4 10,2 18,7 27,13 0,0 4,3 8,9 2,4 4,9 4,16 9,2 14,2 14,2 1,0 4,0 5,2 0,2 -2,4 -3,5l0 0 0 0c-6,3 -12,6 -18,7 1,2 1,3 1,5 1,-1 2,0 4,0 0,0 3,0 5,4 1,2 2,5 2,8 0,2 -1,4 -1,7 -1,4 -4,13 -11,12 0,0 -3,0 -5,-2l0 0c-3,3 -5,6 -9,9 -5,3 -10,5 -16,6zm-38 -5c-5,2 -12,6 -20,11l0 0c5,-1 11,-1 18,2 6,3 7,7 7,9 0,0 0,0 0,1 0,0 0,0 0,1 3,2 3,5 3,6 0,0 0,0 0,1 0,4 -1,6 -3,7 0,1 1,3 1,4 0,1 0,1 0,1 0,2 -1,4 -3,6 0,0 0,1 0,1 0,3 -2,6 -3,7l0 0 0 0c-4,2 -7,3 -10,3 0,2 1,3 4,4l2 1c6,2 15,6 30,5 19,-2 20,-6 21,-10l0 0 0 0c0,0 0,0 0,-1 0,0 0,-1 -1,-1 -1,-2 -2,-3 -2,-4 0,0 0,-1 0,-1 0,0 0,0 0,0 -2,0 -2,-1 -3,-1 0,-1 0,-1 0,-2 0,-1 0,-1 0,-2 -2,0 -2,-2 -2,-3 0,-1 0,-1 0,-1 0,0 0,0 0,-1 0,0 0,0 0,0 -2,-1 -2,-3 -2,-4 0,-1 0,-1 0,-1l0 -2c0,-3 -2,-12 -2,-12l0 1c0,-1 0,-3 1,-4 2,-1 4,0 5,1 5,2 10,6 24,14 12,7 16,3 16,3 0,0 0,0 0,-1l19 -12 0 0c0,0 3,-2 8,-1 2,0 5,0 7,-2 -4,1 -8,0 -13,-2 -6,-2 -10,-5 -11,-9 -1,-2 -2,-4 -2,-6 0,-2 1,-4 1,-5l0 -1c0,1 0,1 0,1 -1,2 -2,3 -2,4 0,1 -1,3 -3,5l-13 11c-1,1 -4,3 -9,0 0,0 -30,-14 -32,-15 -7,0 -12,-1 -13,-1 -7,-1 -13,-2 -18,-5zm-20 -46c-1,-1 -2,-2 -3,-2l-1 0 0 0c0,0 -1,0 -2,2 -2,2 -2,6 -2,11l0 0 0 0c0,1 0,11 5,11l0 0 0 0c0,0 1,1 3,0l0 0c0,0 0,-1 0,-1 -2,-5 -2,-9 -2,-11 0,0 0,-1 0,-1 0,-3 1,-6 2,-9zm84 32c1,0 1,1 1,1 1,1 3,1 3,1l0 0 0 0c6,1 8,-9 8,-9l0 0 0 0 0 0c1,-5 0,-9 -1,-12 -1,-2 -3,-2 -3,-2l0 0 0 0c-1,0 -2,-1 -3,0 0,4 -1,7 -1,8 0,5 -2,9 -4,13zm0 -29c-20,4 -37,-2 -45,-6 -10,-5 -18,-5 -25,-4l-3 1c-1,0 -3,1 -6,3l0 0 0 0c0,0 0,1 -1,1 -1,3 -2,7 -2,11l0 0c0,0 0,9 4,18 6,12 17,18 33,20l0 0 0 0c0,0 20,4 33,-6l0 0c7,-5 11,-13 12,-23l0 0 0 0c0,0 2,-7 0,-15zm-78 -16c1,-2 2,-3 4,-5 5,-4 11,-6 17,-8 -1,-9 3,-16 7,-19 1,-1 1,-1 1,-1 -3,1 -6,2 -9,4 -10,4 -17,11 -20,21 -2,4 -2,7 -2,9 0,0 1,-1 2,-1zm23 -13c3,-1 7,-1 10,-1 13,-2 23,2 25,3 2,-6 0,-11 -5,-16 -3,-4 -6,-6 -8,-8 -3,0 -7,0 -11,1 -2,1 -3,2 -4,3 -5,5 -8,11 -7,18zm-31 35l0 0 0 0 0 0c0,0 0,0 0,0zm58 -56c2,2 3,3 5,5 5,6 7,12 5,19 7,3 14,6 20,7 0,0 0,0 0,0l0 0c0,-13 -10,-19 -11,-20 -6,-5 -12,-9 -19,-11zm113 95c0,0 0,0 0,0l0 0 0 0c0,0 0,-1 0,-1 -1,0 -2,-1 -3,-1l-1 -1 -1 -1c0,-1 -2,-2 -3,-3 -1,0 -3,-1 -5,0l0 0 -1 -1c-4,-1 -9,0 -12,2l-1 0 0 0c-4,1 -8,1 -11,-1l-4 -1 2 -4c1,-1 2,-3 2,-5 0,0 0,-1 0,-2 0,-4 -1,-7 -4,-9 -1,-1 -3,-2 -4,-2 -1,0 -2,1 -3,1 -1,1 -2,3 -2,4 0,2 1,3 2,4 2,2 3,4 3,7 0,1 -1,2 -1,3l-1 2 -1 1c-4,1 -5,4 -6,8 -1,1 -1,3 -1,4 0,2 0,3 1,5 2,3 5,5 9,7 6,2 12,2 19,1 2,-1 5,-2 8,-4 3,-2 10,-5 14,-4 2,1 6,1 7,-1 1,0 1,-1 1,-1 0,-1 0,-1 0,-1 0,-1 -1,-1 -2,-2l-2 -1 1 -3zm-165 12l-1 1c-1,0 -1,0 -2,0l-6 2 1 -6c1,-4 2,-7 2,-11 0,-2 -1,-4 -1,-7l0 -1c-1,-2 -3,-5 -5,-6 -2,-2 -5,-3 -8,-2 -2,1 -4,2 -5,4 -1,3 0,7 1,10 6,13 8,20 4,34 -3,12 1,20 12,24 7,2 15,2 21,-2l0 0 1 -1c0,0 1,-2 1,-3 0,0 0,0 0,0l-1 -3 2 -1c1,-1 2,-2 2,-3 0,0 0,0 0,-1 0,0 0,-2 0,-3l-1 -2 2 -2c1,-1 1,-3 1,-4 0,-1 0,-1 0,-1 0,-1 0,-2 -1,-3l-2 -2 0 -2c0,0 0,-1 0,-1 0,0 0,0 0,0 0,-3 -3,-4 -4,-5 -4,-2 -9,-3 -13,-3zm-4 -23l0 0c0,0 0,0 0,0l0 0 0 0zm36 -7c5,2 7,2 12,2 -3,4 -5,4 -7,4 -2,-1 -5,-2 -5,-6z"/>
  <path fill="#393185" d="M45 382l47 0c-11,-13 -4,-26 3,-39l-38 0 0 -11 -20 0 0 -20 -19 0 0 40c0,10 0,30 27,30zm12 -70l0 -44 -20 0 0 -20 -19 0 0 44 19 0 0 20 20 0zm0 -64l0 -20 -20 0 0 -20 -19 0 0 20 20 0 0 20 19 0zm0 -41l0 -16c-8,0 -13,-3 -18,-4l-2 -1c-4,-2 -5,-4 -6,-7 0,0 -1,0 -1,0 -5,0 -9,-2 -10,-2 -1,0 -1,0 -2,-1l0 11 20 0 0 20 19 0z"/>
  <path fill="#393185" d="M783 335l0 -75 20 0 0 -20 -20 0 0 -20 20 0 0 -20 -20 0 0 -20 20 0 0 -21 -20 0 0 -20 20 0 0 -20 -20 0 0 -20 20 0 0 -20 -20 0 0 -3c3,0 5,2 8,2 13,0 25,-7 32,-17l-1 38 -19 0 0 20 19 0 0 61 -19 0 0 20 19 0 0 20 -19 0 0 20 19 0 0 47 -19 0 0 20 19 0 0 31c-13,-6 -25,-8 -39,-3z"/>
  <path fill="#393185" fill-rule="nonzero" d="M436 217c0,0 1,0 2,0 0,1 1,1 1,2 1,2 2,4 2,5 0,1 0,1 0,1 0,0 0,1 0,1 -1,0 -1,1 -1,1 0,1 -1,2 -3,4 -1,2 -3,4 -4,6 -2,1 -3,3 -5,3 0,4 1,8 1,10 1,2 1,4 2,6 1,0 1,1 1,2 0,1 0,1 -1,1 0,1 -1,1 -2,1 -1,0 -2,1 -3,1 -1,0 -1,0 -1,1 -1,0 -1,0 -1,0 0,0 0,0 -1,0 0,0 -1,0 -2,0 0,-1 -1,-1 -1,-2 -1,-1 -2,-2 -2,-5 -1,-2 -1,-5 -1,-9 0,1 -1,2 -2,4 0,1 -1,3 -1,4 -1,2 -1,3 -2,3 -1,2 -1,3 -2,3 -1,0 -1,0 -1,0 -1,0 -1,-1 -1,-1 0,0 -1,0 -2,0 0,0 -1,0 -2,-1 0,0 -1,0 -1,-1 -1,0 -1,-1 -1,-1 -1,-1 -1,-1 -1,-3 0,0 0,0 0,-1 0,0 0,0 1,-1 0,0 0,0 0,-1 1,-1 2,-3 3,-6 1,-2 2,-5 4,-9 1,-4 2,-7 4,-10 1,-3 2,-5 2,-7 0,-1 1,-1 3,-1 0,0 1,0 3,1 1,0 3,1 3,1 1,1 2,2 2,3 0,0 0,1 0,1 -1,1 -1,3 -2,5 -1,2 -2,3 -2,4 2,-1 4,-3 6,-6 2,-3 3,-5 5,-8 1,-1 2,-1 3,-1zm50 4c2,-1 3,-1 4,-1 0,0 1,0 2,1 0,1 1,2 1,4 1,2 1,4 1,7 0,2 0,3 0,5 -1,4 -2,7 -4,10 -2,3 -4,6 -6,8 -3,2 -5,4 -8,5 -1,0 -2,1 -3,1 -1,0 -2,-1 -3,-1 -2,-1 -3,-2 -5,-3 -1,-2 -2,-3 -3,-4 0,-1 -1,-3 -1,-4 0,-1 1,-3 1,-5 0,0 0,0 -1,0 -1,0 -1,1 -2,1 -1,4 -3,9 -4,13 -1,1 -1,2 -1,2 -1,0 -1,0 -2,0 -1,0 -1,0 -2,0 0,0 -1,-1 -2,-1 -1,-1 -1,-1 -1,-2 -2,-1 -3,-2 -3,-4 0,0 0,-1 1,-3 1,-1 1,-3 2,-4 0,-2 1,-3 2,-5 -1,0 -1,-2 -1,-5 0,0 0,-1 1,-1 0,-1 0,-1 1,-1 0,-1 1,-1 1,-1 1,0 1,-1 2,-1 0,-1 1,-2 2,-4 0,-1 1,-3 2,-5 1,-2 1,-3 2,-4 1,-1 2,-2 3,-2 1,0 1,0 2,0 0,0 0,1 1,1 0,1 1,1 1,1 0,1 1,1 1,1 0,0 1,0 1,1 0,0 0,0 1,0 0,1 0,1 0,2 0,1 0,1 -1,2 0,1 -1,2 -2,4 0,2 -1,3 -1,3 1,0 1,0 2,-1 0,-1 1,-2 2,-4 1,-1 2,-2 3,-3 1,-1 2,-2 3,-3 1,-1 2,-2 3,-3 1,-1 3,-1 3,-1 1,0 1,0 2,1 1,0 2,1 3,3zm-12 28c1,-1 2,-3 4,-5 1,-2 2,-4 3,-6 1,-2 2,-3 2,-4 0,-1 0,-2 0,-2 0,-1 0,-2 0,-2 -1,0 -1,0 -1,0 0,0 -1,0 -1,1 -4,7 -7,12 -8,17 0,0 0,1 0,1 0,0 0,1 0,1 0,0 0,-1 1,-1zm49 -22c-1,0 -1,0 -2,0 -2,3 -3,5 -5,8 -1,2 -2,5 -3,7 -1,2 -1,4 -1,4 0,2 0,3 2,3 0,0 1,0 2,-1 2,0 2,-1 3,-1 1,-1 2,-1 3,-1 1,0 2,0 2,1 0,0 0,0 0,1 1,0 1,0 1,1 0,0 0,1 0,1 0,1 0,2 -1,3 0,2 -1,2 -1,3 -2,0 -3,1 -5,2 -1,1 -2,2 -3,2 -1,0 -2,1 -4,1 -2,0 -3,-1 -4,-1 -1,-1 -3,-3 -5,-5 -2,-1 -2,-3 -2,-6 0,-2 0,-4 0,-7 1,-2 2,-4 3,-7 1,-2 2,-4 3,-6 1,-2 3,-4 4,-5 2,-3 5,-4 7,-6 3,-1 5,-1 6,-1 2,0 4,0 7,2 1,0 1,1 2,2 1,1 1,2 1,3 0,2 0,3 0,5 -1,2 -1,3 -2,3 0,1 -1,1 -3,2 -2,0 -3,1 -4,1 0,0 -1,-1 -2,-1 -1,-1 -1,-2 -1,-3 0,0 0,-1 1,-2 0,-1 0,-1 1,-2zm28 32c0,1 -1,1 -2,1 0,0 -1,0 -2,-1 -2,-1 -3,-2 -4,-3 0,0 -1,-1 -1,-3 0,0 1,-1 1,-2 1,-3 1,-5 2,-6 0,-2 1,-3 2,-5 0,-1 1,-3 2,-5 1,-2 1,-4 2,-7 0,0 -1,1 -2,1 -1,0 -2,0 -2,0 -1,0 -1,0 -1,-1 0,0 0,-1 -1,-3 0,-2 0,-3 0,-4 0,-1 0,-1 1,-2 1,0 2,0 4,0 2,-1 4,-1 6,-1 3,0 5,0 6,0 1,0 2,0 2,0 1,0 1,0 2,1 1,1 2,2 3,3 0,1 0,2 0,2 0,1 0,1 -1,2 0,1 -1,1 -2,1 0,0 -1,0 -1,0 -1,0 -1,0 -2,0 0,0 -1,0 -2,1 0,0 0,1 0,1 0,0 0,1 0,1 0,0 0,1 0,2 -5,12 -8,21 -10,27zm38 -33c-1,2 -2,4 -4,7 1,0 1,0 3,0 1,0 1,0 2,0 1,0 1,0 2,0 0,0 0,0 1,1 0,0 0,1 0,3 0,0 0,0 0,1 0,1 0,1 0,2 -1,1 -3,2 -4,2 -3,0 -5,0 -7,0 -1,2 -2,4 -3,7 1,0 3,0 5,0 2,0 3,0 4,0 0,0 1,0 2,0 0,1 0,1 0,2 0,0 0,1 0,1 0,0 0,1 0,1 0,0 0,0 0,0 0,1 0,1 0,2 -1,0 -1,1 -1,1 0,0 0,1 -1,1 -1,1 -3,2 -7,2 -4,1 -6,1 -8,1 -1,0 -2,0 -3,-2 -1,-1 -2,-2 -3,-3 -1,-2 -1,-3 -1,-4 0,-1 0,-2 1,-4 1,-2 2,-4 3,-8 0,-1 0,-2 0,-2 0,-1 0,-2 1,-3 0,0 1,0 2,0 1,-2 2,-5 5,-8 -1,-2 -2,-4 -2,-5 0,0 0,-1 1,-1 0,-1 0,-1 1,-1 1,-1 3,-1 5,-2 3,0 5,0 6,0 2,0 4,0 6,0 1,0 1,1 1,1 1,1 1,2 2,3 1,2 1,3 1,3 0,1 0,1 0,2 -1,0 -1,0 -2,0 -1,0 -1,0 -2,0 -1,0 -2,0 -2,0 -1,0 -2,0 -4,0zm39 24c-1,1 -1,2 -1,4 0,2 -1,3 -1,4 0,1 -1,2 -1,2 -1,1 -1,1 -2,1 -1,0 -1,0 -2,0 0,0 0,0 -1,-1 -1,0 -1,-1 -3,-1 -1,-1 -1,-1 -2,-1 0,-1 -1,-1 -1,-2 0,-1 1,-2 1,-3 1,-2 1,-4 2,-6 0,-2 1,-3 1,-3 0,0 0,-1 -1,-1 0,0 0,1 0,1 0,0 -1,0 -2,0 -1,0 -1,0 -1,1 -1,0 -1,2 -1,3 -1,2 -1,4 -2,6 0,1 -1,3 -2,4 0,2 -1,3 -1,3 -1,0 -1,0 -2,-1 -1,0 -2,0 -3,-1 -1,0 -1,0 -1,0 -1,0 -1,-1 -2,-2 -1,-2 -1,-3 -1,-4 0,-1 1,-5 4,-11 0,-1 0,-1 0,-1 0,-1 0,-1 0,-2 0,-1 -1,-2 -1,-2 0,-1 1,-1 1,-1 0,-1 1,-1 1,-1 1,0 2,-1 2,-1 1,-2 1,-3 2,-5 1,-1 1,-3 2,-5 1,-1 2,-3 3,-5 0,-1 0,-1 1,-2 0,0 1,0 2,0 1,0 2,0 4,2 2,2 3,3 3,4 0,0 0,1 -1,2 -2,3 -3,6 -3,7 0,0 0,0 0,0 0,0 0,0 0,1 0,0 0,0 0,0 1,0 2,0 3,0 0,0 1,-1 1,-1 0,-1 1,-3 2,-4 1,-2 2,-4 3,-6 1,-2 1,-3 2,-4 0,0 0,0 0,-1 0,0 1,0 1,0 1,0 2,0 3,1 1,1 1,2 2,2 0,0 0,1 0,1 0,1 1,1 1,2 0,1 1,2 1,3 0,1 -1,2 -1,3 -2,4 -4,8 -6,11 -1,3 -2,6 -3,10zm41 0c-1,1 -1,1 -1,1 0,1 1,1 1,1 0,0 1,1 1,2 1,0 1,1 1,2 0,2 0,3 -1,4 -1,2 -2,3 -2,4 -2,1 -3,2 -5,2 -1,0 -1,-1 -1,-2 0,-1 0,-2 -1,-2 0,-1 -1,-1 -1,-1 -1,0 -3,0 -7,0 -4,-1 -9,-1 -13,-1 -1,0 -1,0 -1,0 0,1 0,1 0,1 0,0 -1,0 -1,0 -1,1 -2,2 -2,2 -1,0 -1,0 -2,0 0,0 -1,0 -1,-1 0,0 -1,-1 -1,-1 0,-1 1,-3 1,-4 2,-3 3,-5 5,-5 1,0 1,-1 1,-1 0,0 1,0 1,0 6,-16 13,-27 19,-34 1,0 2,0 2,0 1,0 2,0 2,0 1,0 3,1 5,3 1,0 1,0 1,0 0,1 0,1 0,2 0,0 0,0 0,1 0,0 0,0 -1,1 2,0 3,1 3,2 0,1 1,2 1,3 0,6 -1,13 -3,21zm-8 -19c0,1 -1,3 -3,5 -1,2 -2,5 -3,8 -2,2 -2,5 -3,6 2,0 4,0 5,1 0,-2 1,-3 2,-6 0,-3 1,-5 1,-8 1,-2 1,-4 1,-6zm43 -7c-1,0 -1,1 -2,3 -1,2 -2,4 -2,5 -1,1 -1,3 -2,4 1,-1 2,-3 4,-5 1,-2 3,-4 5,-6 1,-2 3,-5 5,-7 1,-1 1,-1 2,-1 0,0 1,0 1,0 0,0 1,1 2,1 2,2 3,3 3,4 1,0 1,1 1,2 0,0 0,1 -1,2 -1,2 -2,4 -3,6 -1,3 -2,5 -3,8 -1,2 -2,5 -3,8 -1,2 -1,5 -2,7 0,3 -1,5 -4,5 0,0 -1,0 -1,0 -1,0 -1,-1 -2,-1 -1,0 -1,-1 -1,-1 -2,0 -3,-1 -3,-3 0,-1 0,-1 1,-3 0,-1 0,-2 1,-3 0,-2 1,-3 2,-5 0,-2 1,-3 1,-4 -1,2 -3,4 -4,6 -1,2 -2,3 -3,4 -1,2 -2,3 -2,4 -1,1 -2,3 -3,4 0,1 0,1 -1,1 0,0 -1,1 -1,1 -1,0 -2,-1 -3,-2 0,-1 -1,-1 -2,-2 0,0 -1,-1 -1,-1 -1,-1 -1,-1 -1,-2 0,-1 0,-2 1,-3 1,-4 2,-8 4,-12 1,-4 3,-8 4,-12 1,-3 3,-6 4,-8 0,-1 1,-1 2,-1 1,0 3,0 5,2 1,0 1,0 2,1 0,0 0,0 0,1 0,1 0,1 0,3zm44 0c1,1 2,2 2,4 0,1 0,4 -1,6 0,3 0,6 -1,9 -1,3 -1,6 -2,8 0,3 -1,5 -1,6 0,1 0,2 -1,2 -1,1 -2,1 -4,1 -1,0 -2,0 -3,-1 0,0 -1,0 -1,-1 -1,0 -1,0 -1,0 -1,-1 -1,-2 -1,-3 0,-1 0,-3 1,-7 1,-3 3,-8 4,-14 -2,3 -3,6 -5,8 -1,3 -3,6 -4,9 -1,3 -2,5 -2,7 -1,1 -1,2 -2,2 -2,0 -3,0 -3,-1 -1,0 -2,-1 -3,-2 0,-1 -1,-1 -1,-2 -1,-1 -1,-2 -1,-3 0,0 0,-1 0,-2 1,-3 3,-5 4,-8 2,-3 4,-6 6,-8 2,-3 4,-6 6,-9 2,-3 5,-5 7,-7 0,-1 1,-1 2,-1 1,0 2,0 2,0 1,0 2,1 3,2 1,1 2,2 2,3 0,0 -1,1 -2,2z"/>
 </g>
</svg>
